<svg width="29" height="26" viewBox="0 0 29 26" fill="none" xmlns="http://www.w3.org/2000/svg">
<path d="M5.15772 23.1177H19.2906V21.0716H5.15772V8.79541H2.80225V21.0716C2.80225 22.2 3.85868 23.1177 5.15772 23.1177Z" fill="#F39C12"/>
<path d="M24.0015 2.65723H9.86866C8.56961 2.65723 7.51318 3.57487 7.51318 4.70326V16.9795C7.51318 18.1079 8.56961 19.0255 9.86866 19.0255H24.0015C25.3006 19.0255 26.357 18.1079 26.357 16.9795V4.70326C26.357 3.57487 25.3006 2.65723 24.0015 2.65723ZM21.646 11.8644H18.1128V14.9334H15.7573V11.8644H12.2241V9.81835H15.7573V6.7493H18.1128V9.81835H21.646V11.8644Z" fill="#F39C12"/>
</svg>
