<svg width="42" height="35" viewBox="0 0 42 35" fill="none" xmlns="http://www.w3.org/2000/svg">
<path d="M29.1981 14.4927C31.0201 14.4927 32.7676 15.1035 34.056 16.1906C35.3444 17.2778 36.0682 18.7523 36.0682 20.2898V27.5362C36.0682 28.3049 35.7063 29.0422 35.0621 29.5858C34.4179 30.1294 33.5442 30.4347 32.6331 30.4347H8.58766C7.67662 30.4347 6.8029 30.1294 6.1587 29.5858C5.5145 29.0422 5.15259 28.3049 5.15259 27.5362V20.2898C5.15259 18.7523 5.8764 17.2778 7.1648 16.1906C8.45321 15.1035 10.2007 14.4927 12.0227 14.4927V10.1449H15.4578V14.4927H18.8929V10.1449H22.3279V14.4927H25.763V10.1449H29.1981V14.4927ZM12.0227 17.3913C11.1117 17.3913 10.238 17.6966 9.59377 18.2402C8.94956 18.7838 8.58766 19.5211 8.58766 20.2898V21.7391H32.6331V20.2898C32.6331 19.5211 32.2712 18.7838 31.627 18.2402C30.9828 17.6966 30.1091 17.3913 29.1981 17.3913H12.0227ZM8.58766 24.6376V27.5362H32.6331V24.6376H8.58766ZM12.0227 5.79705C12.4782 5.79705 12.9151 5.64436 13.2372 5.37257C13.5593 5.10078 13.7403 4.73215 13.7403 4.34778C14.1958 4.34778 14.6326 4.50047 14.9547 4.77226C15.2768 5.04405 15.4578 5.41268 15.4578 5.79705V7.24633C15.4578 7.6307 15.2768 7.99933 14.9547 8.27112C14.6326 8.54291 14.1958 8.6956 13.7403 8.6956C13.2847 8.6956 12.8479 8.54291 12.5258 8.27112C12.2037 7.99933 12.0227 7.6307 12.0227 7.24633V5.79705ZM18.8929 5.79705C19.3484 5.79705 19.7852 5.64436 20.1073 5.37257C20.4294 5.10078 20.6104 4.73215 20.6104 4.34778C21.0659 4.34778 21.5028 4.50047 21.8249 4.77226C22.147 5.04405 22.3279 5.41268 22.3279 5.79705V7.24633C22.3279 7.6307 22.147 7.99933 21.8249 8.27112C21.5028 8.54291 21.0659 8.6956 20.6104 8.6956C20.1549 8.6956 19.718 8.54291 19.3959 8.27112C19.0738 7.99933 18.8929 7.6307 18.8929 7.24633V5.79705ZM25.763 5.79705C26.2185 5.79705 26.6554 5.64436 26.9775 5.37257C27.2996 5.10078 27.4805 4.73215 27.4805 4.34778C27.9361 4.34778 28.3729 4.50047 28.695 4.77226C29.0171 5.04405 29.1981 5.41268 29.1981 5.79705V7.24633C29.1981 7.6307 29.0171 7.99933 28.695 8.27112C28.3729 8.54291 27.9361 8.6956 27.4805 8.6956C27.025 8.6956 26.5882 8.54291 26.2661 8.27112C25.944 7.99933 25.763 7.6307 25.763 7.24633V5.79705Z" fill="#F39C12"/>
</svg>
