<svg width="41" height="40" viewBox="0 0 41 40" fill="none" xmlns="http://www.w3.org/2000/svg">
<path opacity="0.3" d="M13.5474 26.6325H33.5689V7.19519H13.5474V26.6325ZM21.0554 16.9139C22.0065 16.9139 22.8574 17.2216 23.5581 17.7399V8.81497H30.232V12.0545H25.2266V20.9633C25.2266 22.0373 24.7871 23.0673 24.0049 23.8267C23.2226 24.5861 22.1617 25.0128 21.0554 25.0128C19.9492 25.0128 18.8882 24.5861 18.106 23.8267C17.3237 23.0673 16.8843 22.0373 16.8843 20.9633C16.8843 19.8893 17.3237 18.8593 18.106 18.0999C18.8882 17.3405 19.9492 16.9139 21.0554 16.9139Z" fill="#F39C12"/>
<path d="M33.5689 3.95557H13.5474C11.7121 3.95557 10.2105 5.41337 10.2105 7.19512V26.6325C10.2105 28.4142 11.7121 29.872 13.5474 29.872H33.5689C35.4042 29.872 36.9059 28.4142 36.9059 26.6325V7.19512C36.9059 5.41337 35.4042 3.95557 33.5689 3.95557ZM33.5689 26.6325H13.5474V7.19512H33.5689V26.6325ZM21.0555 25.0127C22.1617 25.0127 23.2227 24.5861 24.0049 23.8266C24.7872 23.0672 25.2266 22.0372 25.2266 20.9632V12.0545H30.232V8.8149H23.5582V17.7399C22.8574 17.2216 22.0065 16.9138 21.0555 16.9138C19.9492 16.9138 18.8883 17.3404 18.106 18.0999C17.3238 18.8593 16.8843 19.8893 16.8843 20.9632C16.8843 22.0372 17.3238 23.0672 18.106 23.8266C18.8883 24.5861 19.9492 25.0127 21.0555 25.0127ZM3.53662 10.4347V33.1116C3.53662 34.8933 5.03824 36.3511 6.87355 36.3511H30.232V33.1116H6.87355V10.4347H3.53662Z" fill="#F39C12"/>
</svg>
