<svg width="40" height="39" viewBox="0 0 40 39" fill="none" xmlns="http://www.w3.org/2000/svg">
<path d="M10.4079 28.227C10.4838 28.227 10.5597 28.2196 10.6356 28.2085L17.0196 27.1181C17.0955 27.1033 17.1676 27.07 17.2207 27.0146L33.3096 11.3453C33.3448 11.3111 33.3727 11.2705 33.3917 11.2258C33.4108 11.181 33.4206 11.1331 33.4206 11.0847C33.4206 11.0363 33.4108 10.9883 33.3917 10.9436C33.3727 10.8989 33.3448 10.8583 33.3096 10.8241L27.0016 4.6769C26.9295 4.60667 26.8346 4.5697 26.7321 4.5697C26.6296 4.5697 26.5347 4.60667 26.4626 4.6769L10.3737 20.3462C10.3168 20.4016 10.2826 20.4681 10.2675 20.5421L9.1478 26.7595C9.11088 26.9575 9.12407 27.1613 9.18624 27.3533C9.24841 27.5452 9.35767 27.7195 9.50458 27.861C9.75508 28.0976 10.0701 28.227 10.4079 28.227ZM12.966 21.7804L26.7321 8.37705L29.5142 11.0865L15.7481 24.4899L12.3739 25.0702L12.966 21.7804ZM34.0269 31.332H6.09247C5.42068 31.332 4.87793 31.8606 4.87793 32.5149V33.8456C4.87793 34.0082 5.01457 34.1413 5.18157 34.1413H34.9378C35.1048 34.1413 35.2415 34.0082 35.2415 33.8456V32.5149C35.2415 31.8606 34.6987 31.332 34.0269 31.332Z" fill="#F39C12"/>
</svg>
