<svg width="31" height="31" viewBox="0 0 31 31" fill="none" xmlns="http://www.w3.org/2000/svg">
<path d="M8.02129 22.7656C8.07941 22.7656 8.13753 22.7596 8.19565 22.7505L13.0834 21.8574C13.1415 21.8453 13.1968 21.8181 13.2374 21.7727L25.5557 8.93975C25.5826 8.91174 25.604 8.87847 25.6186 8.84185C25.6331 8.80523 25.6406 8.76597 25.6406 8.72632C25.6406 8.68667 25.6331 8.64741 25.6186 8.61079C25.604 8.57416 25.5826 8.5409 25.5557 8.51289L20.726 3.47842C20.6708 3.4209 20.5982 3.39062 20.5197 3.39062C20.4412 3.39062 20.3686 3.4209 20.3134 3.47842L7.99514 16.3113C7.95155 16.3567 7.9254 16.4112 7.91377 16.4718L7.05652 21.5638C7.02825 21.7259 7.03836 21.8929 7.08595 22.0501C7.13355 22.2073 7.21721 22.35 7.32968 22.4659C7.52147 22.6597 7.76266 22.7656 8.02129 22.7656ZM9.97989 17.4859L20.5197 6.50879L22.6497 8.72783L12.1099 19.705L9.52656 20.1803L9.97989 17.4859ZM26.1049 25.3086H4.71725C4.2029 25.3086 3.78735 25.7415 3.78735 26.2773V27.3672C3.78735 27.5004 3.89197 27.6094 4.01983 27.6094H26.8023C26.9302 27.6094 27.0348 27.5004 27.0348 27.3672V26.2773C27.0348 25.7415 26.6192 25.3086 26.1049 25.3086Z" fill="white"/>
</svg>
