<svg width="24" height="32" viewBox="0 0 24 32" fill="none" xmlns="http://www.w3.org/2000/svg">
<g clip-path="url(#clip0)">
<path d="M9 21C9 23.21 7.32 25 5.25 25C3.18 25 1.5 23.21 1.5 21C1.5 18.792 3.18 17 5.25 17C7.32 17 9 18.792 9 21ZM22.5 17C22.5 19.21 20.82 21 18.75 21C16.68 21 15 19.21 15 17C15 14.79 16.68 13 18.75 13C20.82 13 22.5 14.79 22.5 17Z" fill="#F39C12"/>
<path fill-rule="evenodd" clip-rule="evenodd" d="M21 17V-1H22.5V17H21ZM9 1V21H7.5V1H9Z" fill="#F39C12"/>
<path d="M7.5 0.809986C7.5 0.314174 7.63812 -0.163965 7.88756 -0.531671C8.13701 -0.899376 8.48001 -1.13043 8.85 -1.18001L20.85 -2.78001C21.0586 -2.80797 21.2692 -2.77731 21.4684 -2.69003C21.6676 -2.60275 21.8508 -2.46077 22.0062 -2.27327C22.1617 -2.08577 22.286 -1.85689 22.371 -1.60142C22.4561 -1.34594 22.5 -1.06953 22.5 -0.790014V0.999986L7.5 2.99999V0.809986Z" fill="#F39C12"/>
</g>
<defs>
<clipPath id="clip0">
<rect width="24" height="32" fill="white"/>
</clipPath>
</defs>
</svg>
