<svg width="32" height="27" viewBox="0 0 32 27" fill="none" xmlns="http://www.w3.org/2000/svg">
<g clip-path="url(#clip0)">
<path d="M28.4064 0.0281104C28.1049 0.0281104 27.7892 0.11609 27.5596 0.315578L27.0814 0.76366L26.86 0.60407C26.8054 0.554494 26.7397 0.51504 26.6671 0.488087C26.5944 0.461134 26.5162 0.447238 26.4372 0.447238C26.3582 0.447238 26.28 0.461134 26.2073 0.488087C26.1346 0.51504 26.069 0.554494 26.0144 0.60407C25.9573 0.651532 25.9119 0.70854 25.8809 0.771659C25.8498 0.834778 25.8338 0.9027 25.8338 0.971333C25.8338 1.03997 25.8498 1.10789 25.8809 1.17101C25.9119 1.23413 25.9573 1.29113 26.0144 1.3386L26.1981 1.53092L25.9037 1.78668L25.6823 1.62606C25.6276 1.57649 25.562 1.53704 25.4893 1.51008C25.4167 1.48313 25.3385 1.46923 25.2594 1.46923C25.1804 1.46923 25.1022 1.48313 25.0296 1.51008C24.9569 1.53704 24.8913 1.57649 24.8366 1.62606C24.7792 1.67355 24.7335 1.73069 24.7022 1.794C24.671 1.8573 24.6549 1.92547 24.6549 1.99435C24.6549 2.06323 24.671 2.1314 24.7022 2.19471C24.7335 2.25801 24.7792 2.31515 24.8366 2.36264L25.0204 2.55394L24.799 2.74525C24.6561 2.86804 24.5536 3.02167 24.5018 3.19033C24.4501 3.359 24.451 3.53659 24.5045 3.70484L19.3519 8.18054C18.2884 7.37236 16.6796 6.42197 14.9354 6.42197C14.1616 6.42197 13.3666 6.62658 12.5799 7.09307C10.8345 8.12939 11.169 9.69972 10.0772 10.6102C8.85238 11.6332 5.50407 10.8087 2.42193 13.4869C-0.660211 16.1631 0.705965 19.8654 4.63019 23.1422C6.98331 25.268 9.51545 26.5304 11.8438 26.5304C13.2465 26.5304 14.5856 26.068 15.7457 25.0603C18.8278 22.3831 17.8786 19.4767 19.0575 18.4107C20.1057 17.4644 21.9488 17.7857 23.1431 16.2685C24.8943 14.0455 23.2043 11.6946 21.8546 10.3545L27.0072 5.87875C27.3959 5.96468 27.8069 5.88796 28.1119 5.62299L28.3322 5.43067L28.5536 5.59128C28.6043 5.64095 28.6665 5.68081 28.7361 5.7083C28.8057 5.73579 28.8811 5.75029 28.9575 5.75087C29.1234 5.7499 29.282 5.69219 29.3992 5.59026C29.4563 5.5428 29.5017 5.48579 29.5327 5.42267C29.5637 5.35955 29.5797 5.29163 29.5797 5.223C29.5797 5.15436 29.5637 5.08644 29.5327 5.02332C29.5017 4.9602 29.4563 4.90319 29.3992 4.85573L29.2155 4.6634L29.5099 4.40765L29.7313 4.56826C29.7821 4.61793 29.8442 4.65779 29.9138 4.68528C29.9834 4.71277 30.0588 4.72727 30.1353 4.72785C30.3011 4.72688 30.4598 4.66917 30.5769 4.56724C30.634 4.51978 30.6794 4.46277 30.7105 4.39965C30.7415 4.33653 30.7575 4.26861 30.7575 4.19998C30.7575 4.13134 30.7415 4.06342 30.7105 4.0003C30.6794 3.93719 30.634 3.88018 30.5769 3.83271L30.3932 3.64039L30.9091 3.22504C31.0184 3.13089 31.1051 3.01886 31.1644 2.89542C31.2236 2.77198 31.2541 2.63958 31.2541 2.50586C31.2541 2.37214 31.2236 2.23973 31.1644 2.1163C31.1051 1.99286 31.0184 1.88083 30.9091 1.78668L29.2143 0.314555C29.109 0.221706 28.9831 0.14843 28.8442 0.0991859C28.7053 0.0499419 28.5564 0.0257596 28.4064 0.0281104ZM28.3322 1.24346C28.4229 1.24346 28.5206 1.24755 28.5901 1.30688C28.6565 1.36722 28.6935 1.44747 28.6935 1.53092C28.6935 1.61438 28.6565 1.69463 28.5901 1.75496L26.2346 3.801C26.1662 3.86069 26.0737 3.89483 25.9767 3.89614C25.8801 3.89387 25.7882 3.85944 25.7199 3.79998C25.6539 3.73969 25.6171 3.65966 25.6171 3.57645C25.6171 3.49324 25.6539 3.41321 25.7199 3.35292L28.0754 1.30688C28.1437 1.24755 28.2427 1.24243 28.3322 1.24243V1.24346ZM29.5099 2.26647C29.6006 2.26647 29.6983 2.26954 29.7678 2.3299C29.8345 2.39012 29.8717 2.47041 29.8717 2.55394C29.8717 2.63747 29.8345 2.71776 29.7678 2.77798L27.4124 4.82402C27.3436 4.88335 27.2513 4.91742 27.1544 4.91916C27.058 4.91716 26.9661 4.88311 26.8977 4.82402C26.8313 4.76368 26.7943 4.68343 26.7943 4.59998C26.7943 4.51652 26.8313 4.43628 26.8977 4.37594L29.2532 2.3299C29.3215 2.27057 29.4204 2.26545 29.5099 2.26545V2.26647ZM14.9354 7.85931C16.066 7.85931 17.2603 8.52632 18.1742 9.20253L14.2358 12.6235C14.1487 12.6153 14.0686 12.5908 13.9791 12.5908C13.238 12.5929 12.528 12.8496 12.0039 13.3048C11.4799 13.76 11.1844 14.3767 11.1819 15.0204C11.1844 15.6642 11.4799 16.2809 12.0039 16.7361C12.528 17.1913 13.238 17.4479 13.9791 17.4501C14.7202 17.4479 15.4302 17.1913 15.9542 16.7361C16.4782 16.2809 16.7737 15.6642 16.7762 15.0204C16.7762 14.9427 16.7479 14.8731 16.7397 14.7964L20.7134 11.3447C21.7357 12.3739 22.8898 14.0291 21.7816 15.4368C21.4212 15.8931 20.9678 16.0608 20.1622 16.2992C19.4532 16.5089 18.5664 16.7647 17.8432 17.4184C17.0494 18.1355 16.8728 19.0787 16.6655 20.0721C16.404 21.3192 16.1108 22.7289 14.5679 24.068C13.7577 24.7718 12.8649 25.1227 11.8438 25.1227C10.0572 25.1227 7.91372 24.0527 5.80793 22.1498C5.79634 22.1388 5.78416 22.1282 5.77142 22.1181C3.59849 20.3064 2.36658 18.4527 2.34891 16.9079C2.33713 16.0066 2.74227 15.225 3.56316 14.51C5.10599 13.1698 6.72892 12.914 8.1634 12.688C9.30699 12.5079 10.394 12.3227 11.2185 11.6332C11.9651 11.0112 12.2608 10.2593 12.5069 9.65062C12.7896 8.95292 12.9662 8.59282 13.5009 8.27568C13.9579 8.00458 14.4313 7.86034 14.9354 7.86034V7.85931ZM7.16939 16.6828C7.07267 16.6847 6.98058 16.7192 6.91264 16.779L6.17656 17.4194C6.10909 17.4793 6.0713 17.5597 6.0713 17.6435C6.0713 17.7272 6.10909 17.8076 6.17656 17.8675L10.7026 21.799C10.8416 21.9186 11.0795 21.9186 11.2185 21.799L11.9545 21.1596C12.0211 21.0995 12.0583 21.0194 12.0583 20.936C12.0583 20.8527 12.0211 20.7726 11.9545 20.7125L7.42732 16.78C7.35938 16.7202 7.26729 16.6857 7.17057 16.6839L7.16939 16.6828Z" fill="#F39C12"/>
</g>
<defs>
<clipPath id="clip0">
<rect width="30.6212" height="26.5985" fill="white" transform="translate(0.621094 0.0280762)"/>
</clipPath>
</defs>
</svg>
