<svg width="71" height="60" viewBox="0 0 71 60" fill="none" xmlns="http://www.w3.org/2000/svg">
<path fill-rule="evenodd" clip-rule="evenodd" d="M35.4708 14.2761C30.565 14.2761 29.9494 14.2939 28.0218 14.3687C26.0984 14.4434 24.7852 14.7045 23.6358 15.0855C22.4306 15.4731 21.3388 16.0806 20.4367 16.8655C19.5173 17.6362 18.8059 18.5688 18.3521 19.5985C17.906 20.5787 17.6016 21.7001 17.5127 23.3425C17.4251 24.9885 17.4043 25.5142 17.4043 29.7032C17.4043 33.8923 17.4251 34.418 17.5127 36.0639C17.6002 37.7063 17.906 38.8278 18.3521 39.808C18.8149 40.8226 19.4319 41.683 20.4367 42.541C21.3388 43.3259 22.4306 43.9334 23.6358 44.321C24.7852 44.7008 26.0984 44.9618 28.0218 45.0378C29.9494 45.1125 30.565 45.1303 35.4708 45.1303C40.3765 45.1303 40.9922 45.1125 42.9197 45.0378C44.8431 44.963 46.1564 44.7019 47.3043 44.321C48.5102 43.9336 49.6024 43.3261 50.5049 42.541C51.4243 41.7703 52.1357 40.8376 52.5895 39.808C53.0342 38.8278 53.3399 37.7063 53.4289 36.0639C53.5164 34.418 53.5373 33.8923 53.5373 29.7032C53.5373 25.5142 53.5164 24.9885 53.4289 23.3425C53.3413 21.7001 53.0356 20.5787 52.5881 19.5985C52.1347 18.569 51.4238 17.6363 50.5049 16.8655C49.6024 16.0804 48.5102 15.4729 47.3043 15.0855C46.1564 14.7057 44.8431 14.4446 42.9197 14.3687C40.9922 14.2939 40.3765 14.2761 35.4708 14.2761ZM35.4708 17.0554C40.2945 17.0554 40.8657 17.072 42.771 17.1456C44.5318 17.2144 45.4894 17.466 46.1259 17.6772C46.9694 17.9573 47.5712 18.2907 48.2035 18.8307C48.8358 19.3706 49.2263 19.8845 49.5543 20.6048C49.8017 21.1483 50.0963 21.9648 50.1769 23.4695C50.2631 25.0953 50.2825 25.5842 50.2825 29.7032C50.2825 33.8223 50.2631 34.31 50.1769 35.937C50.0963 37.4417 49.8017 38.2582 49.5543 38.8017C49.2649 39.4718 48.8033 40.078 48.2035 40.5758C47.6206 41.088 46.9106 41.4822 46.1259 41.7293C45.4894 41.9405 44.5318 42.1921 42.771 42.2609C40.8671 42.3345 40.2945 42.3511 35.4708 42.3511C30.647 42.3511 30.0745 42.3345 28.1705 42.2609C26.4084 42.1921 25.4522 41.9405 24.8157 41.7293C24.0309 41.4822 23.321 41.088 22.7381 40.5758C22.1383 40.078 21.6767 39.4718 21.3873 38.8017C21.1399 38.2582 20.8453 37.4417 20.7647 35.937C20.6785 34.3112 20.659 33.8223 20.659 29.7032C20.659 25.5842 20.6785 25.0965 20.7647 23.4695C20.8453 21.9648 21.1399 21.1483 21.3873 20.6048C21.7152 19.8845 22.1058 19.3706 22.7381 18.8307C23.321 18.3185 24.031 17.9243 24.8157 17.6772C25.4522 17.466 26.4084 17.2144 28.1705 17.1456C30.0745 17.072 30.647 17.0554 35.4708 17.0554Z" fill="#F39C12"/>
<path fill-rule="evenodd" clip-rule="evenodd" d="M35.4708 21.3964C32.8907 21.3964 30.4163 22.2716 28.592 23.8294C26.7676 25.3873 25.7427 27.5002 25.7427 29.7033C25.7427 31.9064 26.7676 34.0193 28.592 35.5772C30.4163 37.135 32.8907 38.0102 35.4708 38.0102C38.0508 38.0102 40.5252 37.135 42.3496 35.5772C44.174 34.0193 45.1989 31.9064 45.1989 29.7033C45.1989 27.5002 44.174 25.3873 42.3496 23.8294C40.5252 22.2716 38.0508 21.3964 35.4708 21.3964ZM35.4708 35.0434C33.8122 35.0434 32.2215 34.4808 31.0487 33.4793C29.8759 32.4779 29.217 31.1196 29.217 29.7033C29.217 28.287 29.8759 26.9287 31.0487 25.9272C32.2215 24.9258 33.8122 24.3631 35.4708 24.3631C37.1294 24.3631 38.7201 24.9258 39.8929 25.9272C41.0657 26.9287 41.7246 28.287 41.7246 29.7033C41.7246 31.1196 41.0657 32.4779 39.8929 33.4793C38.7201 34.4808 37.1294 35.0434 35.4708 35.0434ZM47.5614 21.5151C47.5614 21.7644 47.5039 22.0113 47.3922 22.2417C47.2804 22.472 47.1166 22.6813 46.9102 22.8577C46.7037 23.034 46.4586 23.1738 46.1888 23.2692C45.919 23.3647 45.6299 23.4138 45.3379 23.4138C45.0459 23.4138 44.7567 23.3647 44.4869 23.2692C44.2172 23.1738 43.972 23.034 43.7656 22.8577C43.5591 22.6813 43.3953 22.472 43.2836 22.2417C43.1718 22.0113 43.1143 21.7644 43.1143 21.5151C43.1143 21.0115 43.3486 20.5285 43.7656 20.1725C44.1826 19.8164 44.7481 19.6163 45.3379 19.6163C45.9276 19.6163 46.4932 19.8164 46.9102 20.1725C47.3272 20.5285 47.5614 21.0115 47.5614 21.5151Z" fill="#F39C12"/>
</svg>
