<svg width="47" height="42" viewBox="0 0 47 42" fill="none" xmlns="http://www.w3.org/2000/svg">
<path d="M23.7308 6.38098C14.6223 6.38098 7.24243 12.7914 7.24243 20.7032C7.24243 28.6151 14.6223 35.0255 23.7308 35.0255C32.8392 35.0255 40.2191 28.6151 40.2191 20.7032C40.2191 12.7914 32.8392 6.38098 23.7308 6.38098ZM23.7308 8.76802C25.5372 8.76171 27.3272 9.06611 28.9975 9.66368C30.6679 10.2612 32.1855 11.1401 33.4628 12.2497C34.7402 13.3592 35.752 14.6775 36.4399 16.1284C37.1279 17.5793 37.4783 19.1341 37.471 20.7032C37.4783 22.2724 37.1279 23.8272 36.4399 25.2781C35.752 26.729 34.7402 28.0472 33.4628 29.1568C32.1855 30.2663 30.6679 31.1452 28.9975 31.7428C27.3272 32.3404 25.5372 32.6448 23.7308 32.6384C21.9243 32.6448 20.1343 32.3404 18.464 31.7428C16.7937 31.1452 15.2761 30.2663 13.9987 29.1568C12.7214 28.0472 11.7095 26.729 11.0216 25.2781C10.3337 23.8272 9.98322 22.2724 9.99049 20.7032C9.98322 19.1341 10.3337 17.5793 11.0216 16.1284C11.7095 14.6775 12.7214 13.3592 13.9987 12.2497C15.2761 11.1401 16.7937 10.2612 18.464 9.66368C20.1343 9.06611 21.9243 8.76171 23.7308 8.76802ZM21.5406 14.4372C18.8681 14.4372 16.5391 14.6521 14.3269 15.2584C13.7416 15.3598 13.2538 15.743 13.2538 16.4519C13.2538 17.1597 13.8556 17.7851 14.6704 17.6812C15.0194 17.6812 15.2558 17.5702 15.4866 17.5702C17.3484 17.1644 19.4479 16.9735 21.5406 16.9735C25.6091 16.9735 29.7847 17.7612 32.5754 19.1743C32.9244 19.277 33.0425 19.3975 33.3916 19.3975C34.2077 19.3975 34.7766 18.876 34.8947 18.167C34.8947 17.5607 34.5457 17.174 34.0786 16.9735C30.5899 15.2572 25.9581 14.4372 21.5406 14.4372ZM21.1545 18.876C18.7128 18.876 16.9733 19.1791 15.2283 19.5849C14.6498 19.7842 14.3269 20.0981 14.3269 20.7032C14.3269 21.2069 14.7886 21.7106 15.4866 21.7106C15.7229 21.7106 15.8246 21.701 16.1736 21.5984C17.4515 21.2952 19.2061 21.1138 21.0693 21.1138C24.9056 21.1138 28.2444 21.9254 30.6875 23.2395C30.9169 23.3421 31.1546 23.4257 31.5023 23.4257C32.2003 23.4257 32.6619 22.9124 32.6619 22.3073C32.6619 21.9015 32.4421 21.5005 31.9749 21.3C28.9521 19.6828 25.1103 18.876 21.1545 18.876ZM21.5406 23.2395C19.5661 23.2395 17.6933 23.4304 15.8301 23.8362C15.3629 23.9389 15.0139 24.2277 15.0139 24.7314C15.0139 25.1372 15.3794 25.5525 15.9593 25.5525C16.0774 25.5525 16.4154 25.4403 16.6463 25.4403C18.2091 25.1237 19.808 24.9608 21.4128 24.9546C24.3161 24.9546 26.9721 25.5609 29.1843 26.6708C29.4206 26.7735 29.6831 26.857 29.9139 26.857C30.3811 26.857 30.8262 26.5539 30.9444 26.1493C30.9444 25.6408 30.6916 25.4534 30.3426 25.2541C27.7828 23.9389 24.7929 23.2395 21.5406 23.2395Z" fill="#F39C12"/>
</svg>
