<svg width="56" height="46" viewBox="0 0 56 46" fill="none" xmlns="http://www.w3.org/2000/svg">
<path d="M52.0233 22.5802C52.0233 22.4835 52.0233 22.3736 52.0179 22.2461C52.0125 21.8901 52.0017 21.49 51.9909 21.0636C51.9477 19.8372 51.872 18.6152 51.7531 17.4635C51.5909 15.8766 51.353 14.5535 51.0287 13.5601C50.6864 12.5233 50.0155 11.5778 49.0831 10.818C48.1506 10.0581 46.9892 9.51064 45.715 9.23021C44.1852 8.89613 41.1905 8.68953 36.9741 8.56205C34.9686 8.50051 32.8225 8.46095 30.6765 8.43897C29.9251 8.43018 29.2278 8.42578 28.6007 8.42139H27.0115C26.3844 8.42578 25.6871 8.43018 24.9357 8.43897C22.7897 8.46095 20.6436 8.50051 18.6382 8.56205C14.4218 8.69392 11.4216 8.90053 9.89724 9.23021C8.6226 9.50995 7.46076 10.0572 6.52815 10.8171C5.59554 11.5771 4.92492 12.523 4.5835 13.5601C4.25376 14.5535 4.02132 15.8766 3.85915 17.4635C3.74022 18.6152 3.66455 19.8372 3.6213 21.0636C3.60508 21.49 3.59968 21.8901 3.59427 22.2461C3.59427 22.3736 3.58887 22.4835 3.58887 22.5802V22.8264C3.58887 22.9231 3.58887 23.033 3.59427 23.1604C3.59968 23.5165 3.61049 23.9165 3.6213 24.3429C3.66455 25.5693 3.74022 26.7913 3.85915 27.943C4.02132 29.5299 4.25917 30.853 4.5835 31.8465C5.27542 33.9521 7.30794 35.6137 9.89724 36.1763C11.4216 36.5104 14.4218 36.717 18.6382 36.8445C20.6436 36.906 22.7897 36.9456 24.9357 36.9676C25.6871 36.9764 26.3844 36.9808 27.0115 36.9852H28.6007C29.2278 36.9808 29.9251 36.9764 30.6765 36.9676C32.8225 36.9456 34.9686 36.906 36.9741 36.8445C41.1905 36.7126 44.1906 36.506 45.715 36.1763C48.3043 35.6137 50.3368 33.9565 51.0287 31.8465C51.3584 30.853 51.5909 29.5299 51.7531 27.943C51.872 26.7913 51.9477 25.5693 51.9909 24.3429C52.0071 23.9165 52.0125 23.5165 52.0179 23.1604C52.0179 23.033 52.0233 22.9231 52.0233 22.8264V22.5802ZM48.1313 22.8088C48.1313 22.9011 48.1313 23.0022 48.1259 23.1209C48.1205 23.4637 48.1097 23.8418 48.0989 24.2506C48.061 25.4199 47.9853 26.5891 47.8718 27.6749C47.7259 29.0903 47.5205 30.2508 47.2664 31.0289C46.9312 32.0443 45.9474 32.8487 44.7041 33.1169C43.5689 33.363 40.7094 33.5608 36.8227 33.6795C34.8551 33.7411 32.736 33.7806 30.6224 33.8026C29.8819 33.8114 29.1954 33.8158 28.5791 33.8158H27.0331L24.9898 33.8026C22.8762 33.7806 20.7626 33.7411 18.7895 33.6795C14.9029 33.5564 12.0379 33.363 10.9081 33.1169C9.6648 32.8443 8.68097 32.0443 8.34582 31.0289C8.09176 30.2508 7.88635 29.0903 7.74039 27.6749C7.62688 26.5891 7.5566 25.4199 7.51336 24.2506C7.49714 23.8418 7.49173 23.4593 7.48633 23.1209C7.48633 23.0022 7.48092 22.8967 7.48092 22.8088V22.5978C7.48092 22.5055 7.48092 22.4044 7.48633 22.2857C7.49173 21.9428 7.50255 21.5648 7.51336 21.156C7.5512 19.9867 7.62688 18.8174 7.74039 17.7316C7.88635 16.3162 8.09176 15.1557 8.34582 14.3777C8.68097 13.3622 9.6648 12.5578 10.9081 12.2897C12.0433 12.0435 14.9029 11.8457 18.7895 11.727C20.7572 11.6655 22.8762 11.6259 24.9898 11.6039C25.7303 11.5951 26.4169 11.5907 27.0331 11.5907H28.5791L30.6224 11.6039C32.736 11.6259 34.8496 11.6655 36.8227 11.727C40.7094 11.8501 43.5743 12.0435 44.7041 12.2897C45.9474 12.5622 46.9312 13.3622 47.2664 14.3777C47.5205 15.1557 47.7259 16.3162 47.8718 17.7316C47.9853 18.8174 48.0556 19.9867 48.0989 21.156C48.1151 21.5648 48.1205 21.9472 48.1259 22.2857C48.1259 22.4044 48.1313 22.5099 48.1313 22.5978V22.8088ZM22.9951 28.5936L35.5362 22.6593L22.9951 16.8129V28.5936Z" fill="#F39C12"/>
</svg>
