<svg width="42" height="34" viewBox="0 0 42 34" fill="none" xmlns="http://www.w3.org/2000/svg">
<path d="M37.8574 9.41643C37.3076 8.38593 36.5149 7.4521 35.5236 6.66721C34.5316 5.87999 33.362 5.25439 32.0783 4.82444C30.7473 4.37684 29.3196 4.14773 27.8783 4.15041C25.8563 4.15041 23.8834 4.59866 22.1689 5.44534C21.7588 5.64788 21.3691 5.87034 21 6.11272C20.6309 5.87034 20.2412 5.64788 19.8311 5.44534C18.1166 4.59866 16.1437 4.15041 14.1217 4.15041C12.6656 4.15041 11.2547 4.3762 9.92168 4.82444C8.63379 5.25608 7.47305 5.87698 6.47637 6.66721C5.48378 7.45121 4.69087 8.38526 4.14258 9.41643C3.57246 10.4889 3.28125 11.6278 3.28125 12.7998C3.28125 13.9055 3.56016 15.0576 4.11387 16.2297C4.57734 17.2092 5.2418 18.2252 6.09082 19.2512C7.43613 20.8748 9.28594 22.5682 11.5828 24.2848C15.3891 27.1303 19.1584 29.0959 19.3184 29.1756L20.2904 29.6803C20.7211 29.9028 21.2748 29.9028 21.7055 29.6803L22.6775 29.1756C22.8375 29.0926 26.6027 27.1303 30.4131 24.2848C32.71 22.5682 34.5598 20.8748 35.9051 19.2512C36.7541 18.2252 37.4227 17.2092 37.882 16.2297C38.4357 15.0576 38.7146 13.9055 38.7146 12.7998C38.7188 11.6278 38.4275 10.4889 37.8574 9.41643ZM21 27.0539C21 27.0539 6.39844 19.4803 6.39844 12.7998C6.39844 9.41643 9.85605 6.67385 14.1217 6.67385C17.1199 6.67385 19.7203 8.02854 21 10.0074C22.2797 8.02854 24.8801 6.67385 27.8783 6.67385C32.1439 6.67385 35.6016 9.41643 35.6016 12.7998C35.6016 19.4803 21 27.0539 21 27.0539Z" fill="#F39C12" fill-opacity="0.9"/>
<path d="M27.8783 6.67383C24.8801 6.67383 22.2797 8.02852 21 10.0074C19.7203 8.02852 17.1199 6.67383 14.1217 6.67383C9.85605 6.67383 6.39844 9.41641 6.39844 12.7998C6.39844 19.4803 21 27.0539 21 27.0539C21 27.0539 35.6016 19.4803 35.6016 12.7998C35.6016 9.41641 32.1439 6.67383 27.8783 6.67383Z" fill="#F39C12"/>
</svg>
