<svg width="42" height="45" viewBox="0 0 42 45" fill="none" xmlns="http://www.w3.org/2000/svg">
<path d="M19.25 26.25C21 26.25 22.8375 26.55 24.85 27.075C23.4325 28.7062 22.75 30.6187 22.75 32.8125C22.75 34.4813 23.1875 36.0562 24.115 37.5H5.25V33.75C5.25 31.5187 6.8425 29.7188 10.045 28.35C13.2475 26.9625 16.3275 26.25 19.25 26.25ZM19.25 22.5C17.36 22.5 15.75 21.7688 14.315 20.3062C12.915 18.8438 12.25 17.0813 12.25 15C12.25 12.975 12.915 11.25 14.315 9.7125C15.75 8.2125 17.36 7.5 19.25 7.5C21.1925 7.5 22.8375 8.2125 24.2025 9.7125C25.5675 11.25 26.25 12.975 26.25 15C26.25 17.0813 25.5675 18.8438 24.2025 20.3062C22.8375 21.7688 21.1925 22.5 19.25 22.5ZM32.375 18.75H38.5V22.5H35V32.8125C35 34.0557 34.5391 35.248 33.7186 36.1271C32.8981 37.0061 31.7853 37.5 30.625 37.5C29.4647 37.5 28.3519 37.0061 27.5314 36.1271C26.7109 35.248 26.25 34.0557 26.25 32.8125C26.25 31.5693 26.7109 30.377 27.5314 29.4979C28.3519 28.6189 29.4647 28.125 30.625 28.125C31.255 28.125 31.8325 28.2563 32.375 28.5187V18.75Z" fill="#F39C12"/>
</svg>
