<svg width="44" height="76" viewBox="0 0 44 76" fill="none" xmlns="http://www.w3.org/2000/svg">
<path d="M35.2054 0C31.7563 3.96309 27.0422 6.72341 21.7937 7.85333C22.1234 6.57272 22.0284 5.22522 21.522 3.99894C21.0156 2.77266 20.1231 1.72881 18.969 1.01314C17.8149 0.297456 16.4568 -0.0543351 15.0845 0.00687446C13.7121 0.068084 12.3939 0.53924 11.3138 1.35456C10.2338 2.16989 9.44586 3.28868 9.06003 4.55476C8.6742 5.82083 8.70973 7.17099 9.16166 8.41673C9.61359 9.66248 10.4594 10.7416 11.5809 11.5035C12.7024 12.2655 14.0438 12.6721 15.4176 12.6667H16.473C21.9699 12.6596 27.3412 11.0873 31.9075 8.14889L25.9711 25.7556C22.5724 29.4852 18.0316 32.0864 12.9991 33.1867C13.3288 31.9061 13.2338 30.5586 12.7274 29.3323C12.221 28.106 11.3285 27.0621 10.1744 26.3465C9.0203 25.6308 7.66226 25.279 6.28988 25.3402C4.9175 25.4014 3.59928 25.8726 2.51925 26.6879C1.43921 27.5032 0.65128 28.622 0.26545 29.8881C-0.120381 31.1542 -0.0848496 32.5043 0.367081 33.7501C0.819012 34.9958 1.66478 36.075 2.78632 36.8369C3.90786 37.5988 5.24919 38.0054 6.62303 38H7.67838C13.1753 37.9929 18.5466 36.4207 23.1129 33.4822L8.82168 76H17.6163L44 0H35.2054Z" fill="#F39C12"/>
</svg>
