<svg width="7" height="39" viewBox="0 0 7 39" fill="none" xmlns="http://www.w3.org/2000/svg">
<path d="M0 3.25C0 4.11195 0.368748 4.9386 1.02513 5.5481C1.6815 6.15759 2.57174 6.5 3.5 6.5C4.42826 6.5 5.3185 6.15759 5.97487 5.5481C6.63125 4.9386 7 4.11195 7 3.25C7 2.38805 6.63125 1.5614 5.97487 0.951903C5.3185 0.34241 4.42826 0 3.5 0C2.57174 0 1.6815 0.34241 1.02513 0.951903C0.368748 1.5614 0 2.38805 0 3.25ZM0 19.5C0 20.362 0.368748 21.1886 1.02513 21.7981C1.6815 22.4076 2.57174 22.75 3.5 22.75C4.42826 22.75 5.3185 22.4076 5.97487 21.7981C6.63125 21.1886 7 20.362 7 19.5C7 18.638 6.63125 17.8114 5.97487 17.2019C5.3185 16.5924 4.42826 16.25 3.5 16.25C2.57174 16.25 1.6815 16.5924 1.02513 17.2019C0.368748 17.8114 0 18.638 0 19.5ZM0 35.75C0 36.612 0.368748 37.4386 1.02513 38.0481C1.6815 38.6576 2.57174 39 3.5 39C4.42826 39 5.3185 38.6576 5.97487 38.0481C6.63125 37.4386 7 36.612 7 35.75C7 34.888 6.63125 34.0614 5.97487 33.4519C5.3185 32.8424 4.42826 32.5 3.5 32.5C2.57174 32.5 1.6815 32.8424 1.02513 33.4519C0.368748 34.0614 0 34.888 0 35.75Z" fill="#F39C12"/>
</svg>
