<svg width="98" height="98" viewBox="0 0 98 98" fill="none" xmlns="http://www.w3.org/2000/svg">
<path d="M85.9497 79.697C90.8864 73.7574 94.3199 66.7161 95.9597 59.1689C97.5996 51.6216 97.3976 43.7905 95.3708 36.3378C93.344 28.8852 89.552 22.0303 84.3157 16.3531C79.0793 10.6759 72.5527 6.34335 65.2878 3.72201C58.0229 1.10068 50.2335 0.267651 42.5786 1.2934C34.9237 2.31915 27.6284 5.1735 21.31 9.61499C14.9915 14.0565 9.8357 19.9544 6.27873 26.8099C2.72175 33.6654 0.868254 41.2768 0.875018 49.0001C0.877614 60.2277 4.83414 71.0956 12.0503 79.697L11.9816 79.7555C12.2222 80.0442 12.4972 80.2917 12.7447 80.577C13.0541 80.9311 13.3875 81.2645 13.7072 81.6083C14.6697 82.6533 15.6597 83.657 16.6978 84.5989C17.0141 84.8876 17.3406 85.1558 17.6603 85.4308C18.7603 86.3795 19.8913 87.2801 21.0635 88.1189C21.2147 88.222 21.3522 88.3561 21.5035 88.4626V88.4214C29.5544 94.087 39.1588 97.1276 49.0035 97.1276C58.8481 97.1276 68.4525 94.087 76.5034 88.4214V88.4626C76.6547 88.3561 76.7888 88.222 76.9435 88.1189C78.1122 87.2767 79.2466 86.3795 80.3466 85.4308C80.6663 85.1558 80.9928 84.8842 81.3091 84.5989C82.3472 83.6536 83.3372 82.6533 84.2997 81.6083C84.6194 81.2645 84.9494 80.9311 85.2622 80.577C85.5063 80.2917 85.7847 80.0442 86.0253 79.752L85.9497 79.697ZM49 21.5001C52.0594 21.5001 55.0502 22.4074 57.594 24.1071C60.1378 25.8068 62.1205 28.2227 63.2913 31.0492C64.4621 33.8758 64.7684 36.986 64.1715 39.9867C63.5747 42.9873 62.1014 45.7436 59.9381 47.9069C57.7747 50.0703 55.0185 51.5435 52.0178 52.1404C49.0172 52.7373 45.9069 52.4309 43.0804 51.2601C40.2538 50.0894 37.8379 48.1067 36.1382 45.5629C34.4385 43.019 33.5313 40.0283 33.5313 36.9689C33.5313 32.8663 35.161 28.9318 38.062 26.0308C40.9629 23.1299 44.8974 21.5001 49 21.5001ZM21.5241 79.697C21.5837 75.1835 23.418 70.8749 26.63 67.7034C29.842 64.5318 34.1736 62.7525 38.6875 62.7501H59.3125C63.8265 62.7525 68.158 64.5318 71.37 67.7034C74.5821 70.8749 76.4163 75.1835 76.476 79.697C68.937 86.4907 59.1484 90.2504 49 90.2504C38.8516 90.2504 29.0631 86.4907 21.5241 79.697Z" fill="#F39C12"/>
</svg>
