<svg width="30" height="30" viewBox="0 0 30 30" fill="none" xmlns="http://www.w3.org/2000/svg">
<path d="M15.0003 30C12.6957 30 10.5277 29.5064 8.49653 28.5191C6.46532 27.5318 4.75637 26.1682 3.36968 24.4283L9.25823 19.8244C9.96134 20.665 10.8109 21.3199 11.807 21.7891C12.8031 22.2583 13.8675 22.4929 15.0003 22.4929C17.0706 22.4929 18.8381 21.7647 20.3029 20.3082C21.7677 18.8518 22.5002 17.0874 22.5002 15.0151C22.5002 12.9428 21.7677 11.1736 20.3029 9.70736C18.8381 8.24113 17.0706 7.50802 15.0003 7.50802C13.3011 7.50802 11.7777 8.03586 10.4301 9.09155L15.0296 13.6662C15.0687 14.585 14.7757 15.0347 14.1507 15.0151H1.26035C0.928326 14.9956 0.645128 14.8098 0.410758 14.458C0.176388 14.1061 0.0592029 13.7248 0.0592029 13.3143L0.000610339 0.880655C-0.0189205 0.274613 0.430289 -0.0186334 1.34824 0.000916394L5.09816 3.75447C6.44579 2.56193 7.9692 1.63821 9.66838 0.983291C11.3676 0.328375 13.1449 0.000916394 15.0003 0.000916394C17.0315 0.000916394 18.9748 0.396799 20.8303 1.18856C22.6857 1.98033 24.2823 3.04579 25.6202 4.38495C26.9581 5.7241 28.0225 7.31741 28.8135 9.16486C29.6045 11.0123 30 12.9575 30 15.0005C30 17.0434 29.6045 18.9886 28.8135 20.8361C28.0225 22.6835 26.9581 24.2768 25.6202 25.616C24.2823 26.9551 22.6857 28.0206 20.8303 28.8124C18.9748 29.6041 17.0315 30 15.0003 30V30Z" fill="#F39C12"/>
</svg>
