<svg width="200" height="51" viewBox="0 0 200 51" fill="none" xmlns="http://www.w3.org/2000/svg">
<g filter="url(#filter0_d)">
<rect x="6" y="2" width="188" height="39" rx="4" stroke="#F39C12" stroke-width="4"/>
<path d="M107.887 19.7083V13.4375L111.67 9.47792C113.046 8.0625 113.304 5.805 112.341 4.04917C111.974 3.36747 111.44 2.79937 110.793 2.40279C110.147 2.00622 109.411 1.79534 108.661 1.79167C108.3 1.79167 107.887 1.84542 107.56 1.95292C105.703 2.47251 104.448 4.26417 104.448 6.27084V12.0758L99.0483 17.7554C97.6467 19.2454 96.6959 21.1314 96.3138 23.1794C95.9317 25.2274 96.1351 27.3472 96.8989 29.2758C98.2229 32.68 101.112 35.0271 104.448 35.6362V36.7292C104.448 37.195 104.052 37.625 103.588 37.625H101.009V41.2083H103.588C105.909 41.2083 107.887 39.2196 107.887 36.7292V35.8333C111.378 35.8333 115.04 32.3933 115.04 27.3229C115.04 23.2021 111.739 19.7083 107.887 19.7083ZM107.887 6.27084C107.887 5.85875 108.076 5.53625 108.437 5.42875C108.815 5.32125 109.211 5.4825 109.4 5.84084C109.497 6.01292 109.537 6.21394 109.512 6.41195C109.487 6.60997 109.399 6.79362 109.263 6.93375L107.887 8.47459V6.27084ZM104.448 20.6042C102.78 21.7508 101.525 23.7217 101.077 25.5492L104.448 26.4808V31.9454C103.462 31.67 102.55 31.1613 101.784 30.459C101.017 29.7568 100.417 28.8798 100.028 27.8962C99.0139 25.2804 99.5642 22.3063 101.456 20.2996L104.448 17.0208V20.6042ZM107.887 32.25V23.1842C109.899 23.1842 111.636 25.155 111.636 27.3229C111.636 30.4583 109.452 32.25 107.887 32.25Z" fill="#F39C12"/>
<path d="M33.3758 7.55207L41.6388 28.4763L50.1099 7.63548L54.4868 7.65729L54.3593 33.2507L50.9843 33.2339L51.034 23.2672L51.404 12.5111L42.8985 33.1936L40.3145 33.1807L32.0329 12.4673L32.3135 23.1739L32.2638 33.1406L28.8889 33.1238L29.0164 7.53034L33.3758 7.55207ZM71.5598 31.4556C70.2868 32.9375 68.4257 33.6724 65.9765 33.6602C63.9492 33.6501 62.4052 33.0565 61.3447 31.8793C60.2959 30.6904 59.7714 28.9417 59.7712 26.6331L59.8329 14.2582L63.0848 14.2745L63.0236 26.5614C63.0092 29.4442 64.1739 30.8914 66.5176 30.9031C69.0019 30.9155 70.6589 29.9979 71.4884 28.1505L71.5574 14.3167L74.8093 14.3329L74.7145 33.3522L71.6208 33.3368L71.5598 31.4556ZM90.7707 28.3872C90.7751 27.5083 90.4445 26.827 89.7789 26.3432C89.1251 25.8477 87.9729 25.4201 86.3224 25.0603C84.6835 24.7006 83.379 24.2722 82.4088 23.7752C81.4503 23.2782 80.7384 22.6887 80.273 22.0067C79.8194 21.3247 79.5949 20.515 79.5996 19.5775C79.6074 18.019 80.2702 16.7039 81.588 15.6323C82.9176 14.5608 84.6078 14.0302 86.6585 14.0404C88.8148 14.0511 90.5581 14.6165 91.8884 15.7364C93.2305 16.8564 93.8972 18.2836 93.8886 20.0179L90.6191 20.0016C90.6235 19.111 90.2465 18.3415 89.488 17.6932C88.7412 17.0449 87.7936 16.718 86.6452 16.7122C85.4616 16.7063 84.5346 16.9595 83.8641 17.4718C83.1935 17.9841 82.8562 18.6563 82.852 19.4883C82.8481 20.2734 83.1557 20.8668 83.7748 21.2683C84.3939 21.6698 85.5111 22.0563 87.1265 22.4276C88.7536 22.799 90.0698 23.2391 91.075 23.7481C92.0803 24.257 92.8214 24.8701 93.2983 25.5873C93.787 26.2929 94.0288 27.1554 94.0237 28.1749C94.0153 29.8741 93.3288 31.236 91.9643 32.2604C90.5998 33.2732 88.8336 33.7741 86.6657 33.7633C85.1423 33.7557 83.796 33.4795 82.6268 32.9346C81.4576 32.3897 80.5415 31.6351 79.8783 30.6709C79.2269 29.6949 78.904 28.6445 78.9096 27.5195L82.1615 27.5357C82.2147 28.6258 82.644 29.4952 83.4493 30.1437C84.2665 30.7806 85.343 31.1024 86.6789 31.1091C87.9094 31.1152 88.895 30.874 89.6357 30.3855C90.3882 29.8853 90.7665 29.2193 90.7707 28.3872ZM123.733 31.2938C124.893 31.2995 125.909 30.953 126.779 30.2542C127.65 29.5554 128.135 28.6789 128.234 27.6247L131.31 27.6401C131.246 28.7296 130.866 29.7648 130.17 30.7457C129.473 31.7267 128.544 32.5072 127.381 33.0873C126.229 33.6676 125.009 33.9544 123.72 33.948C121.13 33.9351 119.072 33.0635 117.545 31.3332C116.031 29.5913 115.281 27.2203 115.296 24.2204L115.298 23.6754C115.308 21.8239 115.656 20.1791 116.343 18.7411C117.029 17.3031 118.008 16.1889 119.277 15.3983C120.558 14.6078 122.066 14.2169 123.801 14.2255C125.933 14.2361 127.7 14.8836 129.1 16.168C130.511 17.4524 131.259 19.1143 131.342 21.1538L128.266 21.1385C128.179 19.9076 127.715 18.8974 126.875 18.1081C126.047 17.3071 125.018 16.9035 123.787 16.8974C122.135 16.8891 120.849 17.4804 119.929 18.6711C119.021 19.8502 118.561 21.5647 118.55 23.8147L118.547 24.4299C118.536 26.6213 118.978 28.311 119.875 29.4991C120.771 30.6872 122.057 31.2854 123.733 31.2938Z" fill="#F39C12"/>
<path d="M149.612 27.0457L138.89 26.9923L136.448 33.6599L132.968 33.6425L142.869 8.09783L145.822 8.11255L155.485 33.7548L152.022 33.7375L149.612 27.0457ZM139.923 24.2201L148.624 24.2634L144.324 12.2712L139.923 24.2201ZM161.954 33.787L158.702 33.7708L158.836 6.77115L162.088 6.78736L161.954 33.787ZM170.707 33.8307L167.456 33.8144L167.59 6.81478L170.842 6.83099L170.707 33.8307Z" fill="white"/>
</g>
<defs>
<filter id="filter0_d" x="0" y="0" width="200" height="51" filterUnits="userSpaceOnUse" color-interpolation-filters="sRGB">
<feFlood flood-opacity="0" result="BackgroundImageFix"/>
<feColorMatrix in="SourceAlpha" type="matrix" values="0 0 0 0 0 0 0 0 0 0 0 0 0 0 0 0 0 0 127 0"/>
<feOffset dy="4"/>
<feGaussianBlur stdDeviation="2"/>
<feColorMatrix type="matrix" values="0 0 0 0 0 0 0 0 0 0 0 0 0 0 0 0 0 0 0.25 0"/>
<feBlend mode="normal" in2="BackgroundImageFix" result="effect1_dropShadow"/>
<feBlend mode="normal" in="SourceGraphic" in2="effect1_dropShadow" result="shape"/>
</filter>
</defs>
</svg>
