<svg width="20" height="41" viewBox="0 0 20 41" fill="none" xmlns="http://www.w3.org/2000/svg">
<path d="M12.3543 18.7084V12.4375L16.1373 8.47794C17.513 7.06252 17.7709 4.80502 16.8079 3.04919C16.4409 2.36749 15.907 1.79939 15.2605 1.40281C14.6141 1.00623 13.8782 0.795357 13.1281 0.791687C12.767 0.791687 12.3543 0.845437 12.0276 0.952937C10.1704 1.47252 8.91515 3.26419 8.91515 5.27085V11.0759L3.51572 16.7554C2.11412 18.2454 1.16327 20.1314 0.781159 22.1794C0.399049 24.2274 0.602498 26.3472 1.36626 28.2759C2.69033 31.68 5.57919 34.0271 8.91515 34.6363V35.7292C8.91515 36.195 8.51965 36.625 8.05537 36.625H5.47602V40.2083H8.05537C10.3768 40.2083 12.3543 38.2196 12.3543 35.7292V34.8333C15.845 34.8333 19.5077 31.3933 19.5077 26.3229C19.5077 22.2021 16.2061 18.7084 12.3543 18.7084ZM12.3543 5.27085C12.3543 4.85877 12.5434 4.53627 12.9045 4.42877C13.2828 4.32127 13.6783 4.48252 13.8675 4.84085C13.9648 5.01294 14.0041 5.21395 13.9791 5.41197C13.9542 5.60998 13.8665 5.79364 13.7299 5.93377L12.3543 7.4746V5.27085ZM8.91515 19.6042C7.24717 20.7508 5.99189 22.7217 5.5448 24.5492L8.91515 25.4809V30.9454C7.92932 30.67 7.01774 30.1613 6.25127 29.459C5.48481 28.7568 4.88411 27.8798 4.49587 26.8963C3.48133 24.2804 4.03159 21.3063 5.92311 19.2996L8.91515 16.0209V19.6042ZM12.3543 31.25V22.1842C14.3662 22.1842 16.1029 24.155 16.1029 26.3229C16.1029 29.4583 13.9191 31.25 12.3543 31.25Z" fill="#F49B0C"/>
</svg>
