<svg width="36" height="36" viewBox="0 0 36 36" fill="none" xmlns="http://www.w3.org/2000/svg">
<path d="M33.71 17.0458L18.71 2.25763C18.5227 2.07401 18.2692 1.97095 18.005 1.97095C17.7408 1.97095 17.4874 2.07401 17.3 2.25763L2.30003 17.0458C2.1362 17.2344 2.05059 17.477 2.06032 17.7251C2.07004 17.9733 2.17437 18.2086 2.35246 18.3842C2.53056 18.5598 2.7693 18.6627 3.02097 18.6722C3.27265 18.6818 3.51873 18.5974 3.71003 18.4359L18 4.3477L32.29 18.4458C32.4813 18.6073 32.7274 18.6917 32.9791 18.6821C33.2308 18.6725 33.4695 18.5697 33.6476 18.3941C33.8257 18.2185 33.93 17.9831 33.9397 17.735C33.9495 17.4869 33.8639 17.2443 33.7 17.0557L33.71 17.0458Z" fill="#F39C12"/>
<path d="M28 31.5481H23V21.6893H13V31.5481H8V17.7458L6 19.7176V31.5481C6 32.0711 6.21071 32.5726 6.58579 32.9424C6.96086 33.3122 7.46957 33.5199 8 33.5199H15V23.6611H21V33.5199H28C28.5304 33.5199 29.0391 33.3122 29.4142 32.9424C29.7893 32.5726 30 32.0711 30 31.5481V19.481L28 17.5092V31.5481Z" fill="#F39C12"/>
</svg>
