<svg width="39" height="42" viewBox="0 0 39 42" fill="none" xmlns="http://www.w3.org/2000/svg">
<path d="M11.5091 14.4365V27.5635H27.4909V14.4365H11.5091V14.4365ZM15.0594 16.4874H23.9393C22.4589 17.7602 20.9785 19.0332 19.4982 20.3061C18.0186 19.0332 16.539 17.7602 15.0594 16.4874V16.4874ZM25.5889 17.6947V25.5126H13.411V17.6953C15.4401 19.4416 17.4691 21.1881 19.4982 22.9342C21.5284 21.1879 23.5586 19.4412 25.5889 17.6947ZM19.5 2.03015L19.4941 2.03019L19.287 2.03161L19.2812 2.03165L19.2753 2.03177L19.0685 2.03587L19.0626 2.03602L19.0567 2.03622L18.8503 2.04311L18.8444 2.04332L18.8385 2.04358L18.6324 2.05322L18.6266 2.05349L18.6207 2.05384L18.4149 2.06622L18.4091 2.06659L18.4032 2.06698L18.1978 2.08208L18.192 2.08253L18.1861 2.083L17.9811 2.10084L17.9753 2.10135L17.9694 2.10191L17.7648 2.12242L17.759 2.12303L17.7532 2.12365L17.549 2.14686L17.5432 2.14754L17.5374 2.14826L17.3337 2.17414L17.3279 2.1749L17.3221 2.1757L17.1189 2.20424L17.1131 2.20508L17.1073 2.20596L16.9046 2.23718L16.8988 2.23806L16.893 2.23906L16.6909 2.2729L16.6851 2.27391L16.6793 2.27493L16.4777 2.31144L16.472 2.31246L16.4662 2.31359L16.2651 2.35276L16.2594 2.35389L16.2537 2.3551L16.0532 2.39687L16.0475 2.39808L16.0417 2.39931L15.8419 2.44373L15.8362 2.44496L15.8304 2.44634L15.6312 2.49332L15.6255 2.49469L15.6199 2.49609L15.4212 2.54572L15.4156 2.54711L15.41 2.54861L15.212 2.60082L15.2063 2.60232L15.2007 2.60388L15.0134 2.65587L14.8465 2.72063L14.6935 2.81763L14.56 2.94355L14.4505 3.09393L14.3688 3.26361L14.3177 3.44667L14.2991 3.63671L14.3136 3.82723L14.3606 4.01151L14.4386 4.18323L14.5448 4.33634L14.6755 4.46556L14.8263 4.56641L14.9918 4.63538L15.1663 4.67012L15.3438 4.6693L15.4889 4.64168L15.6711 4.59113L15.8564 4.54226L16.0444 4.49523L16.233 4.45077L16.4224 4.40877L16.6087 4.36991L16.7996 4.33271L16.9871 4.29877L17.1812 4.2662L17.3701 4.23712L17.5624 4.21013L17.7546 4.18571L17.9477 4.16376L18.1411 4.14436L18.3345 4.12759L18.5286 4.11336L18.7228 4.10171L18.9176 4.09262L19.1094 4.0862L19.3046 4.08231L19.5 4.08099L19.6954 4.08233L19.8906 4.08622L20.0824 4.09262L20.2771 4.10171L20.4714 4.11336L20.6654 4.12759L20.8589 4.14436L21.0523 4.16374L21.2453 4.18569L21.4376 4.21013L21.6299 4.23712L21.8187 4.2662L22.0129 4.29877L22.2003 4.33271L22.3912 4.36991L22.5776 4.40877L22.7669 4.45077L22.9363 4.49072L23.1124 4.51406L23.2895 4.50175L23.4614 4.4543L23.6222 4.37329L23.7662 4.26157L23.8884 4.12302L23.9847 3.9624L24.0516 3.78542L24.0868 3.59806L24.0891 3.40692L24.0585 3.21866L23.9959 3.03983L23.9036 2.87657L23.7848 2.73462L23.6436 2.61881L23.4849 2.53329L23.3438 2.48743L23.1695 2.44634L23.1638 2.44498L23.1581 2.44375L22.9582 2.39931L22.9525 2.39808L22.9468 2.39687L22.7463 2.3551L22.7406 2.35389L22.7348 2.35278L22.5338 2.31361L22.528 2.31248L22.5223 2.31144L22.3206 2.27493L22.3149 2.27391L22.3091 2.2729L22.1069 2.23906L22.1011 2.23806L22.0953 2.23718L21.8927 2.20596L21.8869 2.20508L21.8811 2.20426L21.6779 2.1757L21.6721 2.17488L21.6662 2.17414L21.4626 2.14826L21.4568 2.14754L21.4509 2.14686L21.2468 2.12367L21.241 2.12303L21.2351 2.12242L21.0306 2.10191L21.0247 2.10135L21.0188 2.10084L20.8139 2.083L20.808 2.08253L20.8022 2.08208L20.5968 2.06698L20.5909 2.06657L20.585 2.06622L20.3793 2.05386L20.3734 2.05349L20.3675 2.0532L20.1614 2.04358L20.1556 2.04332L20.1497 2.04311L19.9432 2.03622L19.9373 2.03602L19.9314 2.03589L19.7247 2.03177L19.7188 2.03165L19.7129 2.03161L19.5059 2.03019L19.5 2.03015ZM29.4255 5.51033L29.248 5.51455L29.0744 5.55421L28.9106 5.62788L28.7624 5.73298L28.6349 5.86587L28.5324 6.02198L28.4587 6.19584L28.4162 6.38138L28.4064 6.57224L28.4297 6.76169L28.4852 6.94325L28.571 7.11053L28.6842 7.25778L28.7961 7.36103L28.8463 7.40051L29.002 7.52623L29.1525 7.65091L29.307 7.78216L29.4567 7.91261L29.6051 8.04516L29.7535 8.18112L29.9007 8.31949L30.0431 8.45662L30.1888 8.60042L30.3299 8.74326L30.4694 8.88805L30.6089 9.03642L30.7453 9.1851L30.8812 9.33698L31.0151 9.49046L31.1445 9.64243L31.2747 9.79921L31.4031 9.95767L31.5279 10.1156L31.6525 10.2773L31.7737 10.4386L31.8929 10.6013L32.0127 10.7691L32.1281 10.9348L32.2414 11.1018L32.3527 11.2702L32.4622 11.44L32.5709 11.6134L32.6763 11.7859L32.7797 11.9596L32.8823 12.1369L32.9829 12.3154L33.0794 12.4916L33.1746 12.6704L33.2677 12.8502L33.36 13.0337L33.4483 13.2146L33.5352 13.3979L33.5796 13.4943L33.6728 13.6569L33.7924 13.7981L33.9343 13.9129L34.0936 13.9974L34.2645 14.0485L34.4414 14.0646L34.6179 14.0451L34.7881 13.9907L34.9458 13.9031L35.0858 13.7856L35.203 13.6421L35.2936 13.4777L35.3541 13.2981L35.3827 13.1095L35.3784 12.9184L35.3411 12.7315L35.2861 12.5843L35.24 12.484L35.2374 12.4784L35.2348 12.4728L35.1424 12.2778L35.1397 12.2722L35.137 12.2667L35.0423 12.0728L35.0397 12.0673L35.0369 12.0618L34.94 11.8691L34.9372 11.8636L34.9343 11.8581L34.8353 11.6667L34.8324 11.6612L34.8295 11.6558L34.7282 11.4656L34.7253 11.4601L34.7223 11.4547L34.6189 11.2658L34.6159 11.2604L34.6129 11.2551L34.5072 11.0675L34.5042 11.0621L34.5011 11.0567L34.3933 10.8705L34.3902 10.8651L34.387 10.8599L34.277 10.6749L34.2739 10.6696L34.2706 10.6644L34.1585 10.4807L34.1553 10.4755L34.152 10.4703L34.0377 10.2881L34.0344 10.2829L34.0311 10.2777L33.9146 10.0969L33.9113 10.0917L33.9079 10.0866L33.7893 9.90729L33.7859 9.90212L33.7825 9.89707L33.6617 9.71915L33.6583 9.71406L33.6548 9.70902L33.532 9.53261L33.5284 9.52756L33.5249 9.52256L33.3999 9.34763L33.3964 9.34262L33.3927 9.33766L33.2657 9.16427L33.2621 9.15935L33.2584 9.15442L33.1293 8.98257L33.1256 8.97765L33.1218 8.97281L32.9907 8.80255L32.9869 8.79765L32.9831 8.79285L32.8498 8.62417L32.846 8.61933L32.8422 8.61455L32.7069 8.4475L32.703 8.44274L32.6991 8.43802L32.5617 8.27259L32.5578 8.26787L32.5538 8.26321L32.4144 8.09946L32.4104 8.09478L32.4064 8.09013L32.2649 7.92808L32.2609 7.92346L32.2568 7.91887L32.1134 7.75852L32.1093 7.75396L32.1051 7.74943L31.9597 7.59083L31.9555 7.58629L31.9513 7.5818L31.804 7.42514L31.7998 7.42067L31.7956 7.41626L31.6467 7.26178L31.6424 7.25737L31.6381 7.253L31.4876 7.10071L31.4833 7.09634L31.479 7.09205L31.3269 6.94194L31.3226 6.93765L31.3182 6.93341L31.1646 6.78548L31.1602 6.78128L31.1558 6.77712L31.0007 6.63139L30.9962 6.62722L30.9917 6.62312L30.8351 6.47963L30.8307 6.47551L30.8261 6.47147L30.668 6.33017L30.6635 6.32619L30.659 6.32217L30.4994 6.18313L30.4948 6.17919L30.4902 6.17525L30.3292 6.03847L30.3246 6.03455L30.32 6.03069L30.1575 5.89616L30.1529 5.89231L30.1482 5.88855L29.9844 5.75628L29.9797 5.75248L29.975 5.74879L29.9196 5.70521L29.7672 5.60733L29.6005 5.5416L29.4255 5.51031V5.51033ZM9.18873 5.91817L9.01144 5.92707L8.83874 5.97116L8.67668 6.04907L8.55429 6.13742L8.50977 6.17523L8.50516 6.17917L8.50059 6.18313L8.34101 6.32217L8.33644 6.32617L8.33195 6.33017L8.17383 6.47145L8.1693 6.47549L8.16484 6.47961L8.00822 6.62308L8.00376 6.6272L7.99928 6.63137L7.8442 6.7771L7.83972 6.78126L7.83538 6.78546L7.68178 6.93339L7.6774 6.93763L7.67302 6.94192L7.52098 7.09203L7.51664 7.09634L7.51236 7.10069L7.36184 7.25298L7.35756 7.25735L7.35333 7.26176L7.20441 7.41624L7.20017 7.42065L7.19596 7.42512L7.04866 7.5818L7.04447 7.58627L7.0403 7.59078L6.89483 7.74941L6.89068 7.75392L6.88659 7.7585L6.74313 7.91885L6.73904 7.92344L6.73502 7.92806L6.59357 8.09011L6.58951 8.09476L6.58553 8.09944L6.44614 8.26319L6.44214 8.26783L6.43826 8.27255L6.30086 8.43798L6.29696 8.4427L6.29309 8.44748L6.15777 8.61453L6.15391 8.61931L6.1501 8.62415L6.01685 8.79283L6.01305 8.79763L6.00929 8.80253L5.87813 8.97279L5.87436 8.97765L5.87068 8.98257L5.74155 9.1544L5.73786 9.15933L5.73424 9.16425L5.60722 9.33764L5.6036 9.3426L5.60002 9.34763L5.4751 9.52254L5.47152 9.52754L5.468 9.53259L5.34517 9.709L5.34169 9.71404L5.33822 9.71913L5.21749 9.89705L5.21406 9.9021L5.21063 9.90726L5.09207 10.0866L5.0887 10.0917L5.08535 10.0969L4.9689 10.2777L4.96555 10.2828L4.96227 10.2881L4.84798 10.4703L4.8447 10.4755L4.8415 10.4807L4.72934 10.6643L4.7261 10.6696L4.72298 10.6749L4.61295 10.8598L4.60979 10.8651L4.6067 10.8705L4.49884 11.0567L4.4958 11.0621L4.49275 11.0674L4.38706 11.255L4.38407 11.2604L4.38108 11.2658L4.27762 11.4547L4.27465 11.4601L4.27174 11.4655L4.17043 11.6557L4.16757 11.6612L4.16472 11.6667L4.06562 11.8581L4.0628 11.8635L4.06 11.8691L3.96311 12.0617L3.96033 12.0672L3.95766 12.0728L3.86294 12.2666L3.86024 12.2722L3.85759 12.2777L3.76518 12.4728L3.76253 12.4784L3.75992 12.484L3.66973 12.6802L3.66712 12.6858L3.66465 12.6915L3.57663 12.8888L3.57416 12.8945L3.57168 12.9001L3.48597 13.0986L3.48355 13.1043L3.48113 13.11L3.43162 13.2284L3.37411 13.4092L3.34878 13.5984L3.35653 13.7894L3.397 13.9754L3.46885 14.1502L3.56959 14.3076L3.69565 14.4421L3.84276 14.549L4.00571 14.6247L4.17887 14.6666L4.35625 14.6731L4.53164 14.644L4.69902 14.5804L4.85251 14.4844L4.98678 14.3594L5.09717 14.2098L5.16792 14.0706L5.21503 13.9579L5.29673 13.7688L5.37937 13.5835L5.4648 13.3978L5.55163 13.2145L5.63997 13.0337L5.73226 12.8502L5.82534 12.6704L5.92059 12.4916L6.01708 12.3154L6.11763 12.1368L6.22027 11.9596L6.32362 11.7859L6.42902 11.6133L6.53777 11.44L6.64723 11.2702L6.75856 11.1018L6.87188 10.9348L6.98727 10.7691L7.10705 10.6013L7.22625 10.4386L7.34748 10.2773L7.47202 10.1156L7.59687 9.95765L7.72522 9.79919L7.85543 9.64243L7.98483 9.49046L8.11876 9.33696L8.25467 9.18508L8.39102 9.0364L8.53053 8.88803L8.67007 8.74324L8.81118 8.6004L8.95686 8.4566L9.09924 8.31947L9.2465 8.18112L9.39491 8.04514L9.54325 7.91259L9.69312 7.78202L9.73376 7.74744L9.86224 7.61564L9.96578 7.4604L10.0408 7.28715L10.0846 7.10194L10.0957 6.9112L10.0738 6.72154L10.0196 6.53953L9.93495 6.37153L9.8228 6.22338L9.68712 6.10021L9.53255 6.00629L9.36448 5.94493L9.18873 5.91817ZM19.5 5.92662L19.4941 5.92666L19.332 5.92774L19.3261 5.92778L19.3202 5.92791L19.1583 5.93115L19.1525 5.93127L19.1466 5.93148L18.985 5.93689L18.9791 5.9371L18.9732 5.93736L18.8119 5.94491L18.806 5.94518L18.8001 5.9455L18.639 5.9552L18.6331 5.95555L18.6273 5.956L18.4665 5.96782L18.4607 5.96823L18.4548 5.96874L18.2943 5.98268L18.2884 5.9832L18.2826 5.98375L18.1225 5.99981L18.1166 6.00042L18.1108 6.00104L18.0559 6.00731L17.8819 6.04499L17.7174 6.11676L17.5682 6.22023L17.4393 6.35168L17.3354 6.50658L17.2599 6.67962L17.2156 6.86466L17.204 7.05541L17.2254 7.24515L17.2792 7.42725L17.3634 7.59554L17.4751 7.74402L17.6105 7.86762L17.7648 7.962L17.9327 8.02389L18.1084 8.05116L18.2557 8.04675L18.3051 8.04118L18.4543 8.02621L18.6003 8.01349L18.7499 8.00254L18.8995 7.99352L19.0494 7.98646L19.1993 7.98146L19.3495 7.97846L19.5 7.97746L19.6504 7.97846L19.8007 7.98146L19.9506 7.98646L20.1005 7.99352L20.2501 8.00254L20.3996 8.01351L20.5456 8.02621L20.6947 8.04114L20.8431 8.05801L20.9914 8.07688L21.1396 8.09765L21.2844 8.11997L21.4319 8.14468L21.5789 8.17128L21.725 8.19976L21.8713 8.23024L22.0143 8.26203L22.1597 8.29634L22.3053 8.3327L22.4469 8.37002L22.591 8.41009L22.7319 8.45115L22.8739 8.4946L23.0171 8.54046L23.1563 8.58701L23.2975 8.63627L23.4363 8.68672L23.5764 8.73973L23.7167 8.7949L23.8555 8.85156L23.9884 8.90775L24.1268 8.96846L24.2624 9.02992L24.2688 9.03285L24.269 9.0323L24.431 9.0896L24.6069 9.11462L24.7841 9.10395L24.9564 9.05808L25.1178 8.97857L25.2627 8.8682L25.3861 8.73075L25.4836 8.5711L25.5519 8.39471L25.5886 8.20768L25.5925 8.01663L25.5633 7.8281L25.5022 7.64866L25.4112 7.48455L25.2936 7.34147L25.1533 7.22439L25.0231 7.14989L25.0189 7.1479L25.0135 7.14542L25.0082 7.14295L24.8616 7.07643L24.8563 7.07403L24.8509 7.07167L24.7035 7.00707L24.6982 7.00473L24.6928 7.00241L24.5447 6.93976L24.5393 6.93749L24.5339 6.93529L24.3851 6.87457L24.3797 6.87235L24.3742 6.8702L24.2247 6.81145L24.2193 6.80931L24.2138 6.80722L24.0637 6.75041L24.0582 6.74836L24.0527 6.74635L23.9019 6.69152L23.8964 6.68951L23.8909 6.68758L23.7394 6.63471L23.7339 6.6328L23.7284 6.63096L23.5763 6.58004L23.5707 6.57819L23.5651 6.57641L23.4125 6.52754L23.4069 6.52573L23.4013 6.52405L23.248 6.47715L23.2425 6.47543L23.2368 6.47378L23.083 6.42887L23.0774 6.42727L23.0717 6.42567L22.9173 6.38281L22.9117 6.38125L22.906 6.37978L22.7511 6.33893L22.7454 6.33739L22.7397 6.33599L22.5843 6.29713L22.5786 6.29574L22.5729 6.29438L22.4169 6.25761L22.4113 6.25624L22.4055 6.25501L22.2491 6.22023L22.2433 6.21895L22.2376 6.21774L22.0807 6.18508L22.075 6.18385L22.0692 6.18274L21.9118 6.1521L21.9061 6.15097L21.9003 6.14995L21.7424 6.12134L21.7367 6.12031L21.7309 6.11933L21.5726 6.09281L21.5668 6.09183L21.5611 6.09095L21.4024 6.0665L21.3966 6.06562L21.3908 6.0648L21.2317 6.04244L21.2259 6.04162L21.2201 6.04086L21.0606 6.02064L21.0548 6.01989L21.049 6.01925L20.8892 6.00106L20.8834 6.00042L20.8775 5.99981L20.7174 5.98375L20.7115 5.9832L20.7056 5.98266L20.5452 5.96872L20.5393 5.96821L20.5335 5.9678L20.3727 5.956L20.3668 5.95555L20.3609 5.95518L20.1999 5.9455L20.194 5.94518L20.1881 5.94489L20.0268 5.93736L20.0209 5.9371L20.015 5.93689L19.8534 5.93148L19.8475 5.93127L19.8416 5.93115L19.6798 5.92791L19.6739 5.92778L19.668 5.92774L19.5059 5.92666L19.5 5.92662H19.5ZM13.4653 7.5453L13.288 7.55467L13.1155 7.59938L12.9801 7.66213L12.9143 7.69941L12.9091 7.70235L12.904 7.70532L12.764 7.78702L12.7588 7.78998L12.7538 7.79303L12.6146 7.87662L12.6095 7.87968L12.6045 7.88275L12.4662 7.96819L12.4612 7.97131L12.4562 7.97449L12.3189 8.06175L12.3138 8.06492L12.3088 8.06816L12.1725 8.15729L12.1675 8.16053L12.1625 8.16385L12.0271 8.25479L12.0222 8.25811L12.0173 8.26151L11.8828 8.35423L11.8779 8.35763L11.873 8.36108L11.7396 8.45564L11.7347 8.45908L11.7299 8.46261L11.5974 8.55902L11.5925 8.56251L11.5877 8.56612L11.4563 8.66429L11.4515 8.6679L11.4468 8.67155L11.3164 8.77152L11.3116 8.77517L11.3069 8.77888L11.1776 8.88066L11.1729 8.8844L11.1682 8.88815L11.0399 8.99171L11.0352 8.99551L11.0306 8.99934L10.9034 9.10465L10.8988 9.10849L10.8942 9.11242L10.7681 9.21947L10.7635 9.22341L10.759 9.22737L10.6341 9.33625L10.6295 9.3402L10.625 9.34426L10.5012 9.45484L10.4967 9.45888L10.4922 9.46298L10.3696 9.57533L10.3651 9.57943L10.3607 9.58357L10.2393 9.69766L10.2348 9.70182L10.2305 9.70606L10.1102 9.82187L10.1058 9.82612L10.1015 9.8304L9.9824 9.94791L9.9781 9.95222L9.97377 9.95652L9.85597 10.0758L9.85167 10.0801L9.84742 10.0845L9.73088 10.2055L9.72658 10.2099L9.72239 10.2143L9.60708 10.337L9.60289 10.3415L9.59876 10.346L9.48488 10.4702L9.48069 10.4747L9.47662 10.4793L9.36428 10.6048L9.36019 10.6094L9.35619 10.614L9.24546 10.7409L9.2414 10.7455L9.23742 10.7502L9.1283 10.8784L9.12431 10.8831L9.12036 10.8878L9.01285 11.0173L9.00894 11.022L9.00508 11.0268L8.89914 11.1576L8.89528 11.1624L8.89145 11.1672L8.78715 11.2992L8.78334 11.304L8.77957 11.3089L8.67687 11.4422L8.67312 11.4471L8.66944 11.452L8.56838 11.5865L8.56467 11.5914L8.56105 11.5964L8.46161 11.7321L8.45799 11.7371L8.45443 11.7421L8.35661 11.879L8.35305 11.884L8.34954 11.8891L8.25337 12.0272L8.24987 12.0322L8.24641 12.0373L8.15189 12.1766L8.14847 12.1817L8.14504 12.1868L8.05222 12.3272L8.04883 12.3323L8.04552 12.3375L7.95432 12.479L7.95101 12.4842L7.94774 12.4894L7.85825 12.632L7.85498 12.6372L7.85174 12.6425L7.77717 12.7646L7.69385 12.9334L7.64109 13.1158L7.62067 13.3057L7.63332 13.4963L7.67858 13.6811L7.75494 13.8537L7.85968 14.0079L7.98921 14.1386L8.13898 14.2411L8.30384 14.312L8.47804 14.3486L8.65549 14.3497L8.83011 14.3154L8.99575 14.2468L9.1467 14.1463L9.27766 14.0173L9.36796 13.8919L9.43931 13.7752L9.5219 13.6435L9.60739 13.5108L9.6916 13.3834L9.78018 13.2527L9.86873 13.1256L9.96039 12.9973L10.0517 12.8726L10.1463 12.7467L10.2409 12.6239L10.3382 12.5006L10.436 12.38L10.5361 12.2594L10.638 12.1397L10.7399 12.023L10.8433 11.9074L10.948 11.7932L11.0555 11.6788L11.1643 11.5659L11.2726 11.4562L11.3837 11.3466L11.496 11.2385L11.6076 11.1336L11.7223 11.0286L11.8363 10.9267L11.9528 10.8251L12.0694 10.7261L12.1867 10.629L12.3064 10.5323L12.4256 10.4385L12.5458 10.3463L12.6671 10.2557L12.7913 10.1653L12.9144 10.0781L13.0385 9.99246L13.1635 9.9085L13.2901 9.82575L13.4169 9.74519L13.5467 9.66492L13.675 9.58786L13.8065 9.5112L13.8665 9.4772L14.0152 9.37285L14.1434 9.24064L14.2465 9.08507L14.321 8.91157L14.3643 8.72626L14.3749 8.53548L14.3525 8.34586L14.2978 8.16406L14.2127 7.99631L14.1002 7.84851L13.9642 7.72575L13.8093 7.63233L13.6411 7.57144L13.4653 7.5453ZM28.7777 10.0544L28.6004 10.0636L28.4279 10.1081L28.2659 10.1864L28.1203 10.2956L27.996 10.4321L27.8974 10.591L27.8279 10.7668L27.7899 10.9535L27.7848 11.1446L27.8126 11.3334L27.8725 11.5133L27.9624 11.6781L28.0575 11.7993L28.1566 11.9074L28.2601 12.023L28.362 12.1397L28.4639 12.2594L28.564 12.38L28.6617 12.5007L28.7591 12.6239L28.8537 12.7467L28.9483 12.8726L29.0396 12.9973L29.1312 13.1256L29.2198 13.2527L29.3084 13.3835L29.3926 13.5108L29.4781 13.6435L29.5607 13.7751L29.643 13.9099L29.7224 14.0435L29.8004 14.1782L29.8767 14.3137L29.9527 14.4524L30.0259 14.5898L30.0981 14.7292L30.1681 14.8685L30.2358 15.0073L30.3038 15.1507L30.3684 15.2912L30.4331 15.4363L30.495 15.5797L30.5548 15.7225L30.6145 15.8701L30.6715 16.0156L30.7274 16.1636L30.7807 16.3095L30.8336 16.4598L30.8844 16.6099L30.9327 16.7578L30.9802 16.9094L31.0263 17.0625L31.0695 17.2121L31.1119 17.3656L31.1357 17.4561L31.1999 17.6343L31.2937 17.7966L31.4138 17.9373L31.5561 18.0515L31.7156 18.1353L31.8868 18.1858L32.0637 18.2012L32.2402 18.181L32.4101 18.1259L32.5676 18.0377L32.7071 17.9196L32.8239 17.7756L32.9138 17.6109L32.9738 17.431L33.0018 17.2423L32.9967 17.0512L32.9675 16.8957L32.9419 16.7985L32.9403 16.7924L32.9386 16.7865L32.8932 16.622L32.8916 16.616L32.8898 16.6101L32.8426 16.4463L32.8409 16.4403L32.8391 16.4343L32.79 16.2712L32.7882 16.2653L32.7863 16.2594L32.7354 16.097L32.7335 16.091L32.7316 16.0852L32.6788 15.9235L32.6769 15.9176L32.6749 15.9117L32.6204 15.7507L32.6184 15.7449L32.6163 15.739L32.5599 15.5788L32.5579 15.5729L32.5558 15.5671L32.4975 15.4077L32.4954 15.4019L32.4932 15.3961L32.4333 15.2374L32.4311 15.2316L32.4288 15.2258L32.3671 15.068L32.3648 15.0622L32.3625 15.0565L32.299 14.8994L32.2966 14.8937L32.2942 14.888L32.2289 14.7318L32.2265 14.7261L32.2241 14.7204L32.1569 14.565L32.1545 14.5594L32.152 14.5537L32.0831 14.3992L32.0806 14.3936L32.078 14.388L32.0074 14.2344L32.0048 14.2288L32.0022 14.2232L31.9298 14.0705L31.9272 14.0649L31.9245 14.0594L31.8503 13.9076L31.8477 13.9021L31.8449 13.8965L31.769 13.7457L31.7662 13.7402L31.7634 13.7347L31.6858 13.5849L31.683 13.5794L31.6801 13.574L31.6008 13.4251L31.5979 13.4196L31.595 13.4142L31.5139 13.2663L31.5109 13.2609L31.5079 13.2556L31.4252 13.1087L31.4222 13.1033L31.4191 13.098L31.3347 12.9522L31.3316 12.9469L31.3284 12.9416L31.2423 12.7968L31.2392 12.7915L31.236 12.7862L31.1481 12.6425L31.1449 12.6372L31.1416 12.632L31.0522 12.4894L31.0489 12.4842L31.0456 12.479L30.9544 12.3375L30.9511 12.3323L30.9477 12.3272L30.8548 12.1868L30.8514 12.1817L30.848 12.1766L30.7535 12.0373L30.75 12.0322L30.7465 12.0272L30.6504 11.8891L30.6469 11.884L30.6433 11.879L30.5455 11.7421L30.5419 11.7371L30.5383 11.7321L30.4388 11.5964L30.4352 11.5914L30.4315 11.5865L30.3305 11.452L30.3268 11.4471L30.323 11.4422L30.2203 11.3089L30.2166 11.304L30.2127 11.2992L30.1084 11.1672L30.1046 11.1624L30.1007 11.1576L29.9948 11.0268L29.9909 11.022L29.987 11.0173L29.8795 10.8878L29.8756 10.8831L29.8716 10.8784L29.7625 10.7502L29.7585 10.7455L29.7544 10.7409L29.6437 10.614L29.6397 10.6094L29.6356 10.6048L29.5233 10.4793L29.5192 10.4747L29.515 10.4702L29.4123 10.3582L29.2764 10.2353L29.1216 10.1417L28.9534 10.0807L28.7777 10.0544H28.7777ZM6.78415 17.2373L6.60669 17.2395L6.43271 17.2771L6.2682 17.3488L6.11891 17.4522L5.99004 17.5836L5.88605 17.7385L5.81054 17.9114L5.77141 18.0644L5.74334 18.2207L5.74222 18.2269L5.74117 18.233L5.71272 18.4026L5.71167 18.4088L5.71072 18.415L5.68415 18.585L5.6832 18.5912L5.68229 18.5974L5.65767 18.7678L5.65679 18.7741L5.65593 18.7803L5.63323 18.9512L5.63241 18.9574L5.63167 18.9637L5.61092 19.135L5.61015 19.1412L5.60947 19.1475L5.59065 19.3192L5.58995 19.3255L5.58936 19.3318L5.57251 19.5038L5.57188 19.5102L5.57131 19.5164L5.55643 19.6889L5.55586 19.6952L5.55539 19.7015L5.54244 19.8743L5.542 19.8806L5.5416 19.8869L5.53063 20.0601L5.53021 20.0664L5.52987 20.0727L5.52092 20.2462L5.52058 20.2525L5.52031 20.2588L5.51332 20.4326L5.51307 20.4389L5.51288 20.4453L5.50785 20.6193L5.50766 20.6257L5.50755 20.632L5.50454 20.8063L5.50447 20.8127L5.50439 20.819L5.50334 20.9935V21.0063L5.50439 21.1808L5.50447 21.1872L5.50454 21.1935L5.50755 21.3678L5.50766 21.3741L5.50785 21.3805L5.51288 21.5545L5.51307 21.5609L5.51332 21.5672L5.52031 21.741L5.52058 21.7473L5.52092 21.7536L5.52987 21.9271L5.53021 21.9334L5.53063 21.9398L5.5416 22.1129L5.542 22.1192L5.54246 22.1255L5.5554 22.2983L5.55588 22.3046L5.55643 22.3109L5.57131 22.4834L5.57188 22.4897L5.57251 22.4959L5.58936 22.6681L5.58993 22.6744L5.59065 22.6806L5.60947 22.8523L5.61013 22.8586L5.61092 22.8649L5.63167 23.0362L5.63243 23.0424L5.63323 23.0487L5.65593 23.2195L5.65679 23.2258L5.65767 23.232L5.68229 23.4024L5.68318 23.4087L5.68415 23.4149L5.71072 23.5848L5.71167 23.591L5.71272 23.5973L5.74117 23.7668L5.74222 23.7729L5.74334 23.7791L5.77371 23.9481L5.7748 23.9543L5.77598 23.9605L5.80828 24.129L5.80946 24.1351L5.8107 24.1412L5.84488 24.3092L5.8461 24.3154L5.84743 24.3215L5.88348 24.4889L5.88481 24.495L5.8862 24.5011L5.92413 24.668L5.92551 24.6741L5.92695 24.6801L5.96679 24.8464L5.96824 24.8525L5.96976 24.8585L6.01143 25.0242L6.01295 25.0302L6.01455 25.0363L6.0581 25.2014L6.0597 25.2073L6.06134 25.2134L6.10676 25.3778L6.10839 25.3838L6.11013 25.3897L6.15735 25.5535L6.15907 25.5595L6.16086 25.5655L6.18028 25.6299L6.25049 25.8054L6.34973 25.9639L6.47459 26.0998L6.62065 26.2083L6.7829 26.2858L6.95565 26.3295L7.13298 26.3379L7.30865 26.3107L7.47657 26.2489L7.63097 26.1546L7.76637 26.0311L7.87819 25.8827L7.96247 25.7145L8.01629 25.5324L8.03781 25.3426L8.02625 25.1519L7.99182 24.9976L7.97367 24.9373L7.93052 24.7877L7.88815 24.6342L7.8481 24.4824L7.8092 24.3278L7.77298 24.1766L7.73674 24.0173L7.70383 23.8642L7.67192 23.7076L7.64257 23.5542L7.61424 23.3967L7.58763 23.2382L7.56297 23.0803L7.54048 22.9248L7.51894 22.7624L7.50002 22.6061L7.48253 22.4467L7.46682 22.2865L7.45323 22.1292L7.44094 21.9653L7.43098 21.8078L7.42261 21.6466L7.41598 21.4822L7.41145 21.3238L7.40867 21.162L7.40771 20.9999L7.40867 20.8379L7.41145 20.6761L7.41598 20.5176L7.42261 20.3531L7.43098 20.1919L7.44098 20.0343L7.45327 19.8704L7.46682 19.7133L7.4825 19.5535L7.50005 19.3934L7.51894 19.2374L7.54046 19.075L7.56286 18.92L7.58771 18.7611L7.61416 18.6036L7.64101 18.4541L7.65834 18.2639L7.64261 18.0735L7.59434 17.8896L7.51517 17.7185L7.40796 17.5662L7.27634 17.438L7.12491 17.3383L6.95893 17.2707L6.78415 17.2373ZM36.1766 19.1354L35.9994 19.1467L35.8273 19.1932L35.6661 19.2733L35.5216 19.3843L35.3987 19.5222L35.3017 19.6823L35.234 19.8589L35.1979 20.046L35.1929 20.2046L35.1995 20.3695L35.2056 20.5794L35.2092 20.7895L35.2104 20.9999L35.2092 21.2103L35.2056 21.4204L35.1995 21.6303L35.191 21.8397L35.1802 22.0491L35.167 22.2578L35.1513 22.4668L35.1336 22.6716L35.1133 22.8792L35.0905 23.087L35.0655 23.2935L35.038 23.5001L35.0088 23.7025L34.9766 23.9086L34.9422 24.113L34.906 24.3149L34.8669 24.5188L34.8257 24.7212L34.7826 24.9215L34.736 25.1264L34.6885 25.3246L34.6391 25.5213L34.5862 25.7219L34.5312 25.9208L34.4741 26.119L34.4156 26.3134L34.3536 26.5108L34.2895 26.7076L34.2248 26.8983L34.1562 27.0933L34.0878 27.2806L34.0142 27.4753L33.9401 27.6646L33.8628 27.8558L33.7849 28.042L33.7033 28.231L33.6212 28.4151L33.5352 28.602L33.4464 28.7893L33.3808 28.9669L33.3469 29.1545L33.346 29.3457L33.378 29.5337L33.4419 29.712L33.5353 29.8745L33.6552 30.0154L33.7972 30.13L33.9566 30.2142L34.1276 30.265L34.3045 30.2809L34.481 30.261L34.6511 30.2063L34.8087 30.1185L34.9485 30.0007L35.0656 29.8571L35.1425 29.7217L35.2348 29.527L35.2374 29.5214L35.24 29.5158L35.3302 29.3196L35.3328 29.314L35.3353 29.3084L35.4233 29.111L35.4258 29.1054L35.4283 29.0997L35.514 28.9012L35.5164 28.8956L35.5188 28.8898L35.6023 28.6903L35.6047 28.6846L35.607 28.6789L35.6882 28.4782L35.6905 28.4725L35.6928 28.4667L35.7716 28.2651L35.7739 28.2593L35.7761 28.2535L35.8527 28.0509L35.8549 28.045L35.857 28.0392L35.9313 27.8355L35.9335 27.8297L35.9355 27.8239L36.0075 27.6192L36.0096 27.6134L36.0116 27.6075L36.0813 27.4019L36.0833 27.396L36.0852 27.3901L36.1526 27.1836L36.1545 27.1777L36.1564 27.1718L36.2214 26.9643L36.2233 26.9584L36.2251 26.9524L36.2878 26.7441L36.2896 26.7382L36.2913 26.7322L36.3517 26.523L36.3534 26.517L36.355 26.511L36.413 26.301L36.4147 26.295L36.4163 26.2889L36.4719 26.0781L36.4735 26.0721L36.475 26.066L36.5283 25.8544L36.5298 25.8484L36.5312 25.8423L36.5821 25.6299L36.5836 25.6238L36.5849 25.6178L36.6334 25.4046L36.6347 25.3985L36.6361 25.3924L36.6821 25.1785L36.6834 25.1724L36.6847 25.1663L36.7283 24.9517L36.7295 24.9456L36.7307 24.9394L36.7719 24.7242L36.7731 24.718L36.7742 24.7119L36.813 24.496L36.8142 24.4898L36.8152 24.4836L36.8516 24.2671L36.8526 24.2609L36.8536 24.2547L36.8875 24.0375L36.8885 24.0313L36.8894 24.0251L36.9208 23.8074L36.9217 23.8012L36.9225 23.7949L36.9515 23.5767L36.9524 23.5704L36.9531 23.5642L36.9796 23.3453L36.9804 23.3391L36.9811 23.3328L37.0051 23.1135L37.0058 23.1072L37.0064 23.1009L37.0279 22.8811L37.0286 22.8748L37.0291 22.8685L37.0481 22.6482L37.0487 22.6419L37.0491 22.6356L37.0657 22.4149L37.0661 22.4086L37.0665 22.4022L37.0805 22.1811L37.081 22.1748L37.0813 22.1684L37.0928 21.9469L37.0931 21.9405L37.0934 21.9342L37.1023 21.7122L37.1026 21.7059L37.1028 21.6996L37.1092 21.4773L37.1094 21.4709L37.1096 21.4645L37.1134 21.2419L37.1136 21.2356V21.2292L37.1149 21.0063L37.1144 21.0006L37.1149 20.9935L37.1136 20.7706V20.7642L37.1134 20.7579L37.1096 20.5353L37.1094 20.5289L37.1092 20.5226L37.1028 20.3003L37.1026 20.2939L37.1023 20.2876L37.0954 20.1157L37.0712 19.9263L37.0148 19.7452L36.9282 19.5784L36.8143 19.4318L36.6771 19.3105L36.5214 19.2187L36.3526 19.1597L36.1766 19.1354H36.1766ZM2.91794 19.8129L2.74045 19.8147L2.56638 19.852L2.40176 19.9234L2.25231 20.0265L2.12321 20.1577L2.01899 20.3124L1.9432 20.4852L1.89853 20.6702L1.88623 20.8283L1.88525 20.9936V21.0063L1.88655 21.2292L1.88659 21.2356L1.8867 21.2419L1.89053 21.4645L1.89064 21.4709L1.89083 21.4773L1.89723 21.6996L1.89742 21.7059L1.89769 21.7123L1.90664 21.9342L1.90691 21.9405L1.90721 21.9469L1.91869 22.1684L1.91904 22.1748L1.91944 22.1811L1.93343 22.4022L1.93383 22.4086L1.93431 22.4149L1.95084 22.6356L1.95131 22.6419L1.95189 22.6482L1.97087 22.8685L1.97144 22.8748L1.97207 22.8811L1.99359 23.1009L1.9942 23.1072L1.9949 23.1135L2.01894 23.3328L2.0196 23.3391L2.02038 23.3453L2.04685 23.5642L2.04765 23.5704L2.04847 23.5767L2.07747 23.7949L2.07829 23.8012L2.07919 23.8074L2.11065 24.0251L2.11154 24.0313L2.11251 24.0375L2.14643 24.2547L2.1474 24.2609L2.14845 24.2671L2.18478 24.4836L2.18583 24.4898L2.18693 24.4959L2.22572 24.7118L2.22685 24.718L2.22803 24.7242L2.26926 24.9394L2.27044 24.9456L2.27167 24.9517L2.31532 25.1663L2.31656 25.1724L2.31789 25.1785L2.36394 25.3924L2.36527 25.3985L2.36666 25.4046L2.41512 25.6178L2.4165 25.6238L2.41794 25.6299L2.46883 25.8423L2.47027 25.8484L2.4718 25.8544L2.52502 26.066L2.52654 26.0721L2.52814 26.0781L2.58375 26.2889L2.58535 26.295L2.58703 26.301L2.64501 26.511L2.64665 26.517L2.6484 26.523L2.70873 26.7322L2.71048 26.7381L2.71225 26.7441L2.77496 26.9524L2.77675 26.9584L2.77862 26.9643L2.84363 27.1718L2.84548 27.1777L2.84742 27.1836L2.91483 27.3901L2.91672 27.396L2.91872 27.4019L2.98841 27.6075L2.99039 27.6134L2.99249 27.6192L3.06447 27.8239L3.06653 27.8297L3.06864 27.8356L3.14297 28.0392L3.14512 28.045L3.14727 28.0509L3.2239 28.2535L3.22609 28.2593L3.22835 28.2651L3.30725 28.4667L3.30952 28.4725L3.3118 28.4782L3.393 28.6789L3.39532 28.6846L3.39772 28.6903L3.48115 28.8898L3.48357 28.8956L3.48599 28.9012L3.57172 29.0997L3.57419 29.1054L3.57667 29.111L3.66467 29.3084L3.66714 29.314L3.66977 29.3196L3.75996 29.5158L3.76257 29.5214L3.76519 29.527L3.78774 29.5745L3.8828 29.7359L4.00401 29.8755L4.14722 29.9884L4.30737 30.0708L4.47891 30.1197L4.65595 30.1335L4.83225 30.1117L5.00173 30.055L5.15849 29.9654L5.29713 29.8461L5.41275 29.7011L5.50138 29.5355L5.55996 29.355L5.58643 29.166L5.57986 28.9751L5.54048 28.7887L5.48382 28.6422L5.46482 28.602L5.37884 28.4151L5.29676 28.231L5.21511 28.0419L5.13722 27.8558L5.05987 27.6646L4.98579 27.4753L4.91217 27.2806L4.84385 27.0933L4.77522 26.8983L4.71055 26.7076L4.64635 26.5108L4.58442 26.3134L4.52592 26.119L4.46876 25.9208L4.41382 25.7219L4.36094 25.5213L4.31146 25.3246L4.26397 25.1264L4.21735 24.9215L4.17426 24.7212L4.13305 24.5187L4.09401 24.3149L4.05777 24.1131L4.02344 23.9086L3.99122 23.7025L3.96198 23.5001L3.93454 23.2935L3.9095 23.087L3.88675 22.8792L3.86641 22.6716L3.8487 22.4667L3.83305 22.2578L3.81981 22.0491L3.80896 21.8397L3.8005 21.6303L3.79444 21.4204L3.79079 21.2103L3.78961 20.9999L3.79048 20.841L3.77506 20.6506L3.72707 20.4666L3.64819 20.2954L3.54117 20.1429L3.40978 20.0145L3.25852 19.9145L3.09264 19.8465L2.91794 19.8129V19.8129ZM32.4211 22.2125L32.2437 22.2217L32.0711 22.2662L31.9091 22.3444L31.7635 22.4536L31.6392 22.59L31.5405 22.7489L31.471 22.9248L31.4382 23.0748L31.4379 23.0747L31.4372 23.0791V23.0797L31.4125 23.2382L31.3859 23.3967L31.3575 23.5542L31.3282 23.7076L31.2963 23.8642L31.2633 24.0173L31.2271 24.1766L31.1909 24.3278L31.152 24.4824L31.1119 24.6342L31.0696 24.7877L31.0264 24.9374L30.9806 25.0895L30.9331 25.241L30.8846 25.3899L30.8337 25.54L30.7812 25.6893L30.7271 25.8373L30.6712 25.9853L30.6146 26.1297L30.5554 26.2761L30.4952 26.4202L30.4338 26.5623L30.3691 26.7074L30.304 26.8491L30.236 26.9925L30.1675 27.1326L30.0982 27.2705L30.0253 27.4113L29.9521 27.5487L29.8769 27.6861L29.8005 27.8217L29.7226 27.9562L29.6431 28.0899L29.5616 28.2233L29.4782 28.3563L29.3927 28.489L29.3085 28.6165L29.2199 28.747L29.1313 28.8742L29.0386 29.004L28.9899 29.0706L28.8934 29.231L28.8263 29.4079L28.7908 29.5952L28.7882 29.7863L28.8186 29.9746L28.8809 30.1536L28.9729 30.317L29.0916 30.4592L29.2326 30.5751L29.3912 30.6609L29.5618 30.7135L29.7386 30.7311L29.9153 30.713L30.0858 30.66L30.2442 30.5738L30.3849 30.4574L30.4849 30.3408L30.5385 30.2677L30.5421 30.2627L30.5457 30.2577L30.6435 30.1208L30.6471 30.1158L30.6506 30.1108L30.7467 29.9726L30.7502 29.9676L30.7537 29.9625L30.8482 29.8233L30.8516 29.8182L30.855 29.813L30.9479 29.6726L30.9513 29.6675L30.9546 29.6623L31.0458 29.5208L31.0491 29.5156L31.0523 29.5104L31.1418 29.3677L31.1451 29.3625L31.1483 29.3573L31.2362 29.2136L31.2394 29.2083L31.2425 29.203L31.3286 29.0583L31.3318 29.053L31.3349 29.0476L31.4193 28.9018L31.4224 28.8965L31.4254 28.8911L31.5081 28.7442L31.5111 28.7389L31.5141 28.7335L31.5951 28.5856L31.5981 28.5802L31.601 28.5747L31.6803 28.4258L31.6832 28.4204L31.686 28.4149L31.7636 28.2651L31.7664 28.2596L31.7692 28.2541L31.845 28.1032L31.8478 28.0978L31.8505 28.0922L31.9246 27.9404L31.9274 27.9349L31.93 27.9293L32.0024 27.7766L32.005 27.771L32.0076 27.7654L32.0782 27.6118L32.0808 27.6062L32.0833 27.6006L32.1522 27.4461L32.1547 27.4405L32.1571 27.4348L32.2243 27.2794L32.2267 27.2738L32.2291 27.268L32.2944 27.1118L32.2968 27.1061L32.2991 27.1004L32.3627 26.9434L32.365 26.9376L32.3672 26.9319L32.429 26.7739L32.4313 26.7682L32.4335 26.7624L32.4934 26.6037L32.4956 26.598L32.4978 26.5921L32.556 26.4326L32.5581 26.4268L32.5601 26.421L32.6165 26.2608L32.6185 26.2549L32.6206 26.2491L32.6751 26.0881L32.6771 26.0822L32.679 26.0763L32.7318 25.9146L32.7337 25.9087L32.7356 25.9028L32.7865 25.7404L32.7884 25.7345L32.7901 25.7286L32.8392 25.5654L32.8411 25.5595L32.8428 25.5535L32.89 25.3898L32.8918 25.3838L32.8934 25.3778L32.9388 25.2134L32.9405 25.2073L32.9421 25.2013L32.9856 25.0363L32.9872 25.0302L32.9887 25.0242L33.0304 24.8585L33.0319 24.8525L33.0334 24.8464L33.0732 24.6801L33.0746 24.6741L33.076 24.668L33.1139 24.5011L33.1153 24.495L33.1166 24.4889L33.1527 24.3215L33.154 24.3153L33.1552 24.3092L33.1894 24.1412L33.1906 24.1351L33.1918 24.129L33.2241 23.9605L33.2253 23.9543L33.2264 23.9481L33.2568 23.7791L33.2579 23.7729L33.2589 23.7668L33.2874 23.5972L33.2884 23.591L33.2894 23.5848L33.316 23.4149L33.3169 23.4087L33.3178 23.4024L33.319 23.3945L33.3298 23.2037L33.3076 23.0141L33.2531 22.8322L33.1681 22.6644L33.0558 22.5165L32.9199 22.3935L32.7651 22.2999L32.597 22.2389L32.4211 22.2125H32.4211ZM9.41629 28.9557L9.24077 28.984L9.07314 29.0469L8.91931 29.1421L8.78452 29.2665L8.67354 29.4156L8.59013 29.5844L8.53732 29.7668L8.51683 29.9567L8.52944 30.1473L8.57467 30.3321L8.65095 30.5047L8.73598 30.6343L8.77957 30.6909L8.78332 30.6957L8.78715 30.7006L8.89145 30.8326L8.89528 30.8375L8.89914 30.8422L9.00508 30.973L9.00894 30.9778L9.01285 30.9825L9.12036 31.112L9.12432 31.1167L9.1283 31.1214L9.23742 31.2496L9.2414 31.2543L9.24546 31.2589L9.35617 31.3858L9.36019 31.3904L9.36428 31.395L9.47662 31.5205L9.48069 31.5251L9.48488 31.5296L9.59876 31.6538L9.60287 31.6583L9.60708 31.6628L9.72239 31.7854L9.72658 31.7899L9.73086 31.7943L9.84742 31.9152L9.85167 31.9197L9.85597 31.924L9.97377 32.0433L9.9781 32.0476L9.9824 32.0519L10.1015 32.1694L10.1058 32.1737L10.1102 32.1779L10.2304 32.2938L10.2348 32.298L10.2393 32.3021L10.3607 32.4162L10.3651 32.4204L10.3696 32.4245L10.4922 32.5368L10.4967 32.5409L10.5012 32.5449L10.625 32.6556L10.6295 32.6596L10.6341 32.6636L10.759 32.7724L10.7635 32.7764L10.7682 32.7803L10.8942 32.8874L10.8988 32.8913L10.9034 32.8951L11.0306 33.0005L11.0352 33.0043L11.0399 33.0081L11.1682 33.1116L11.1729 33.1154L11.1776 33.1192L11.3069 33.2209L11.3116 33.2246L11.3164 33.2283L11.4468 33.3282L11.4515 33.3319L11.4563 33.3355L11.5877 33.4337L11.5925 33.4373L11.5974 33.4408L11.7299 33.5372L11.7347 33.5407L11.7396 33.5441L11.873 33.6387L11.8779 33.6422L11.8828 33.6456L12.0172 33.7383L12.0222 33.7417L12.0271 33.745L12.1625 33.8359L12.1675 33.8393L12.1725 33.8425L12.3088 33.9316L12.3138 33.9349L12.3188 33.9381L12.4562 34.0253L12.4612 34.0285L12.4662 34.0316L12.6045 34.117L12.6095 34.1202L12.6146 34.1232L12.7538 34.2067L12.7588 34.2098L12.764 34.2128L12.904 34.2945L12.9091 34.2974L12.9143 34.3004L13.0552 34.3802L13.0604 34.3831L13.0655 34.386L13.2073 34.4639L13.2125 34.4668L13.2177 34.4695L13.3603 34.5456L13.3655 34.5483L13.3708 34.5511L13.5142 34.6253L13.5195 34.6279L13.5248 34.6306L13.669 34.7028L13.6743 34.7055L13.6796 34.708L13.8247 34.7784L13.8299 34.781L13.8353 34.7835L13.9811 34.8519L13.9864 34.8544L13.9918 34.8568L14.1384 34.9234L14.1437 34.9258L14.1491 34.9281L14.2964 34.9927L14.3018 34.9951L14.3072 34.9974L14.4491 35.0574L14.6196 35.1105L14.7963 35.1285L14.973 35.1109L15.1436 35.0582L15.3022 34.9724L15.4433 34.8564L15.5618 34.7142L15.6539 34.5508L15.7162 34.3718L15.7465 34.1835L15.7439 33.9924L15.7084 33.8052L15.6412 33.6282L15.5447 33.4678L15.4223 33.3295L15.2781 33.218L15.1455 33.1487L15.0091 33.091L14.8707 33.0303L14.7366 32.9694L14.602 32.9063L14.4693 32.8419L14.3313 32.7728L14.2002 32.705L14.0686 32.6348L13.9365 32.5622L13.8065 32.4886L13.6773 32.4132L13.5466 32.3348L13.419 32.2559L13.2922 32.1754L13.1655 32.0926L13.0406 32.0088L12.9143 31.9217L12.7912 31.8345L12.669 31.7455L12.5478 31.655L12.4256 31.5613L12.3045 31.466L12.1849 31.3694L12.0676 31.2722L11.9529 31.1747L11.8363 31.0731L11.7205 30.9697L11.6093 30.8678L11.4944 30.7598L11.3837 30.6531L11.2742 30.5451L11.1642 30.4337L11.057 30.3226L10.9479 30.2065L10.8447 30.094L10.7385 29.9753L10.6367 29.8586L10.5348 29.7389L10.4373 29.6214L10.3382 29.4991L10.2409 29.3759L10.2015 29.3248L10.0759 29.1897L9.92929 29.0821L9.76664 29.0056L9.59362 28.963L9.41629 28.9557V28.9557ZM26.0001 32.1581L25.8233 32.1746L25.6524 32.226L25.5193 32.2941L25.4535 32.3347L25.3227 32.4132L25.1935 32.4886L25.0634 32.5623L24.9314 32.6348L24.7997 32.705L24.6686 32.7728L24.5306 32.8419L24.3979 32.9063L24.2634 32.9694L24.1293 33.0303L23.9909 33.091L23.8528 33.1494L23.7167 33.205L23.5764 33.2601L23.4391 33.3121L23.2974 33.3636L23.159 33.4119L23.0144 33.4603L22.8739 33.5052L22.7345 33.5479L22.591 33.5898L22.447 33.6297L22.3053 33.6671L22.1596 33.7035L22.0172 33.7371L21.8685 33.7702L21.7222 33.8006L21.5789 33.8285L21.4347 33.8546L21.2844 33.8798L21.1395 33.9021L20.9913 33.923L20.846 33.9415L20.6947 33.9587L20.5457 33.9736L20.3996 33.9863L20.2472 33.9975L20.0977 34.0065L19.9507 34.0133L19.8006 34.0183L19.6459 34.0214L19.4696 34.0428L19.2999 34.099L19.143 34.1882L19.004 34.3071L18.8881 34.4518L18.799 34.6172L18.7401 34.7974L18.7131 34.9863L18.7193 35.1773L18.7582 35.3638L18.8286 35.5393L18.928 35.6976L19.0529 35.8333L19.1991 35.9417L19.3614 36.019L19.5342 36.0625L19.6813 36.0719L19.8416 36.0686L19.8475 36.0685L19.8534 36.0683L20.015 36.0629L20.0209 36.0627L20.0268 36.0624L20.1881 36.0549L20.194 36.0546L20.1999 36.0543L20.3609 36.0446L20.3668 36.0442L20.3727 36.0438L20.5335 36.032L20.5393 36.0315L20.5452 36.031L20.7056 36.0171L20.7115 36.0166L20.7174 36.016L20.8775 35.9999L20.8834 35.9994L20.8892 35.9987L21.049 35.9806L21.0548 35.9799L21.0606 35.9792L21.2201 35.9589L21.2259 35.9582L21.2317 35.9573L21.3908 35.935L21.3966 35.9342L21.4024 35.9332L21.561 35.9088L21.5668 35.9079L21.5726 35.907L21.7309 35.8805L21.7367 35.8795L21.7424 35.8785L21.9003 35.8499L21.9061 35.8488L21.9118 35.8477L22.0692 35.817L22.075 35.8159L22.0807 35.8147L22.2376 35.782L22.2433 35.7808L22.2491 35.7796L22.4055 35.7448L22.4112 35.7435L22.4169 35.7422L22.5729 35.7054L22.5786 35.704L22.5843 35.7026L22.7397 35.6638L22.7454 35.6624L22.7511 35.6609L22.906 35.62L22.9117 35.6185L22.9173 35.6169L23.0717 35.5741L23.0773 35.5725L23.083 35.5709L23.2368 35.526L23.2424 35.5243L23.248 35.5227L23.4013 35.4758L23.4069 35.474L23.4125 35.4723L23.5651 35.4234L23.5707 35.4216L23.5762 35.4197L23.7283 35.3688L23.7339 35.367L23.7394 35.365L23.8908 35.3122L23.8964 35.3102L23.9019 35.3082L24.0527 35.2534L24.0582 35.2514L24.0637 35.2493L24.2138 35.1926L24.2193 35.1905L24.2247 35.1883L24.3742 35.1296L24.3797 35.1274L24.3851 35.1252L24.5339 35.0645L24.5393 35.0623L24.5447 35.06L24.6928 34.9973L24.6982 34.9951L24.7035 34.9927L24.8509 34.9281L24.8563 34.9257L24.8616 34.9233L25.0082 34.8568L25.0135 34.8543L25.0189 34.8519L25.1647 34.7834L25.17 34.7809L25.1753 34.7784L25.3204 34.708L25.3257 34.7054L25.3309 34.7028L25.4752 34.6305L25.4805 34.6279L25.4857 34.6252L25.6292 34.551L25.6344 34.5483L25.6396 34.5455L25.7823 34.4695L25.7875 34.4667L25.7926 34.4639L25.9344 34.3859L25.9396 34.3831L25.9447 34.3801L26.0857 34.3003L26.0908 34.2974L26.0959 34.2944L26.236 34.2127L26.2411 34.2097L26.2462 34.2067L26.3853 34.1232L26.3905 34.1201L26.3955 34.117L26.4669 34.0729L26.6119 33.9628L26.7354 33.8256L26.8332 33.666L26.9017 33.4897L26.9388 33.3028L26.9429 33.1117L26.914 32.9232L26.8532 32.7436L26.7624 32.5793L26.645 32.4361L26.5048 32.3188L26.3469 32.2315L26.1767 32.1773L26.0001 32.1581V32.1581ZM8.85391 33.8257L8.67838 33.8538L8.5107 33.9164L8.35672 34.0115L8.22186 34.1357L8.11069 34.2847L8.02714 34.4534L7.97415 34.6358L7.95347 34.8256L7.96585 35.0163L8.01094 35.2012L8.08703 35.3738L8.19158 35.5283L8.29736 35.6387L8.33195 35.6696L8.33644 35.6737L8.34101 35.6776L8.50059 35.8167L8.50516 35.8207L8.50977 35.8246L8.67078 35.9613L8.67535 35.9653L8.67999 35.9691L8.84243 36.1036L8.84708 36.1075L8.85176 36.1113L9.01557 36.2435L9.02025 36.2473L9.02498 36.2511L9.19019 36.381L9.19492 36.3848L9.19968 36.3884L9.36623 36.5161L9.37099 36.5198L9.37579 36.5234L9.54367 36.6488L9.54843 36.6523L9.55331 36.6559L9.7225 36.779L9.72734 36.7825L9.73219 36.786L9.90267 36.9068L9.90752 36.9102L9.91244 36.9136L10.0842 37.0321L10.0891 37.0355L10.0941 37.0388L10.267 37.155L10.272 37.1583L10.277 37.1615L10.4512 37.2754L10.4562 37.2786L10.4612 37.2818L10.6366 37.3932L10.6416 37.3965L10.6467 37.3996L10.8233 37.5086L10.8283 37.5118L10.8334 37.5148L11.0112 37.6215L11.0163 37.6246L11.0214 37.6276L11.2003 37.7319L11.2054 37.7349L11.2105 37.7378L11.3905 37.8398L11.3957 37.8427L11.4009 37.8455L11.582 37.9451L11.5872 37.948L11.5924 37.9507L11.7746 38.0479L11.7798 38.0507L11.785 38.0534L11.9683 38.1481L11.9735 38.1508L11.9788 38.1535L12.163 38.2458L12.1683 38.2484L12.1736 38.251L12.3589 38.3408L12.3642 38.3434L12.3696 38.3459L12.5558 38.4333L12.5612 38.4359L12.5665 38.4383L12.7537 38.5233L12.7591 38.5257L12.7644 38.528L12.9527 38.6105L12.958 38.6129L12.9635 38.6152L13.1526 38.6952L13.158 38.6975L13.1634 38.6997L13.3535 38.7773L13.3589 38.7795L13.3644 38.7816L13.5553 38.8567L13.5607 38.8588L13.5662 38.8609L13.758 38.9335L13.7635 38.9355L13.769 38.9375L13.9616 39.0076L13.9671 39.0096L13.9726 39.0115L14.1661 39.079L14.1716 39.081L14.1772 39.0828L14.3714 39.1478L14.377 39.1497L14.3825 39.1515L14.5776 39.2139L14.5831 39.2157L14.5887 39.2174L14.7845 39.2773L14.7901 39.279L14.7957 39.2807L14.9922 39.338L14.9978 39.3396L15.0035 39.3412L15.2007 39.396L15.2063 39.3976L15.212 39.399L15.41 39.4512L15.4156 39.4527L15.4212 39.4541L15.6199 39.5037L15.6255 39.5051L15.6312 39.5065L15.806 39.5478L15.9822 39.5711L16.1593 39.5588L16.3313 39.5113L16.492 39.4303L16.636 39.3186L16.7582 39.18L16.8545 39.0194L16.9214 38.8424L16.9566 38.6551L16.9589 38.464L16.9283 38.2757L16.8657 38.0968L16.7734 37.9336L16.6546 37.7916L16.5134 37.6759L16.3547 37.5904L16.2136 37.5445L16.0444 37.5046L15.8592 37.4583L15.671 37.4087L15.4849 37.357L15.2988 37.3027L15.1153 37.2466L14.9306 37.1874L14.7485 37.1265L14.566 37.0628L14.3827 36.9962L14.2037 36.9284L14.0218 36.8569L13.8444 36.7845L13.6643 36.7083L13.4871 36.6307L13.3114 36.5509L13.1338 36.4676L12.9609 36.3837L12.7878 36.2969L12.6144 36.2073L12.4432 36.116L12.2742 36.0231L12.1027 35.926L11.9347 35.828L11.7653 35.7264L11.5995 35.624L11.4324 35.5177L11.27 35.4117L11.1075 35.3026L10.944 35.1898L10.7839 35.0763L10.625 34.9607L10.4653 34.8414L10.3089 34.7214L10.1537 34.5993L9.99992 34.4752L9.84563 34.3474L9.69304 34.2177L9.54329 34.0872L9.51335 34.0605L9.36678 33.9527L9.20421 33.876L9.03126 33.8332L8.85391 33.8257ZM30.0087 33.9292L29.8315 33.9404L29.6593 33.9869L29.4982 34.0669L29.3768 34.1569L29.3069 34.2177L29.1543 34.3474L29 34.4752L28.8463 34.5993L28.6911 34.7214L28.5346 34.8414L28.375 34.9607L28.2161 35.0763L28.056 35.1898L27.8924 35.3025L27.7299 35.4117L27.5676 35.5177L27.4005 35.624L27.2346 35.7264L27.0653 35.828L26.8972 35.9261L26.7257 36.0231L26.5567 36.116L26.3855 36.2073L26.2122 36.2969L26.039 36.3837L25.8661 36.4676L25.6886 36.5509L25.5128 36.6306L25.3357 36.7083L25.1555 36.7845L24.9781 36.8569L24.7963 36.9284L24.6173 36.9962L24.434 37.0628L24.2515 37.1265L24.0694 37.1874L23.8847 37.2466L23.7012 37.3027L23.515 37.357L23.329 37.4087L23.1408 37.4583L22.9555 37.5046L22.7697 37.5485L22.6476 37.5756L22.4779 37.6314L22.3207 37.7203L22.1816 37.839L22.0654 37.9834L21.976 38.1486L21.9168 38.3287L21.8895 38.5176L21.8953 38.7086L21.9339 38.8952L22.004 39.0708L22.1031 39.2293L22.2278 39.3653L22.3738 39.474L22.536 39.5516L22.7088 39.5954L22.886 39.604L23.0323 39.584L23.1581 39.5561L23.1638 39.5548L23.1695 39.5535L23.3688 39.5065L23.3744 39.5051L23.3801 39.5037L23.5787 39.4541L23.5844 39.4527L23.59 39.4512L23.788 39.399L23.7936 39.3976L23.7993 39.396L23.9965 39.3412L24.0021 39.3396L24.0077 39.3379L24.2042 39.2806L24.2098 39.279L24.2155 39.2773L24.4112 39.2173L24.4168 39.2157L24.4224 39.2139L24.6174 39.1514L24.623 39.1496L24.6286 39.1478L24.8228 39.0828L24.8283 39.0809L24.8339 39.079L25.0273 39.0115L25.0328 39.0096L25.0384 39.0075L25.231 38.9375L25.2365 38.9355L25.242 38.9334L25.4338 38.8609L25.4392 38.8588L25.4447 38.8567L25.6356 38.7816L25.6411 38.7794L25.6465 38.7772L25.8365 38.6997L25.842 38.6975L25.8473 38.6952L26.0365 38.6151L26.0419 38.6129L26.0473 38.6105L26.2355 38.528L26.2409 38.5256L26.2462 38.5232L26.4335 38.4382L26.4388 38.4358L26.4442 38.4333L26.6304 38.3459L26.6357 38.3434L26.6411 38.3408L26.8263 38.2509L26.8316 38.2483L26.8369 38.2457L27.0212 38.1534L27.0264 38.1508L27.0317 38.1481L27.215 38.0533L27.2202 38.0506L27.2254 38.0478L27.4076 37.9507L27.4128 37.9479L27.418 37.9451L27.5991 37.8455L27.6042 37.8426L27.6094 37.8398L27.7894 37.7378L27.7946 37.7349L27.7997 37.7319L27.9786 37.6276L27.9837 37.6245L27.9888 37.6215L28.1666 37.5148L28.1716 37.5117L28.1767 37.5086L28.3533 37.3995L28.3584 37.3964L28.3634 37.3932L28.5388 37.2817L28.5438 37.2786L28.5488 37.2753L28.723 37.1615L28.728 37.1582L28.7329 37.1549L28.9059 37.0388L28.9109 37.0354L28.9158 37.0321L29.0875 36.9136L29.0924 36.9102L29.0973 36.9067L29.2678 36.7859L29.2726 36.7825L29.2775 36.779L29.4467 36.6558L29.4515 36.6523L29.4563 36.6487L29.6242 36.5233L29.629 36.5197L29.6337 36.5161L29.8003 36.3884L29.805 36.3847L29.8098 36.381L29.975 36.251L29.9797 36.2473L29.9844 36.2435L30.1482 36.1112L30.1529 36.1075L30.1575 36.1036L30.32 35.9691L30.3246 35.9652L30.3292 35.9613L30.4902 35.8245L30.4948 35.8206L30.4994 35.8166L30.5746 35.7511L30.7015 35.6175L30.8033 35.461L30.8763 35.2867L30.918 35.101L30.9269 34.9101L30.9029 34.7207L30.8465 34.5395L30.76 34.3726L30.6462 34.2259L30.5091 34.1046L30.3534 34.0127L30.1847 33.9536L30.0087 33.9292Z" fill="#F39C12"/>
</svg>
