<svg width="30" height="37" viewBox="0 0 30 37" fill="none" xmlns="http://www.w3.org/2000/svg">
<path d="M20.5125 30.8362L15 27.7879L9.48751 30.8362L10.95 24.9509L6.09376 21.0039L12.4875 20.4929L15 14.9776L17.5125 20.4929L23.9062 21.0039L19.05 24.9509L20.5125 30.8362ZM30 0H2.2189e-05V3.52414L9.11251 9.93808C5.93328 11.2131 3.32019 13.4809 1.71515 16.3579C0.110112 19.2349 -0.388361 22.5445 0.304032 25.7271C0.996426 28.9097 2.83719 31.7699 5.51502 33.824C8.19285 35.8781 11.5434 37 15 37C18.4566 37 21.8072 35.8781 24.485 33.824C27.1628 31.7699 29.0036 28.9097 29.696 25.7271C30.3884 22.5445 29.8899 19.2349 28.2849 16.3579C26.6798 13.4809 24.0667 11.2131 20.8875 9.93808L30 3.52414V0ZM26.25 22.9069C26.251 24.9091 25.647 26.8704 24.5083 28.5626C23.3696 30.2549 21.7429 31.6084 19.8177 32.4658C17.8924 33.3233 15.7476 33.6493 13.6329 33.406C11.5182 33.1627 9.52044 32.36 7.87213 31.0915C6.22381 29.8229 4.99269 28.1405 4.322 26.2401C3.65131 24.3397 3.56862 22.2994 4.08356 20.3566C4.5985 18.4137 5.68989 16.6483 7.23075 15.2655C8.77161 13.8828 10.6986 12.9397 12.7875 12.5459C14.2472 12.2639 15.7528 12.2639 17.2125 12.5459C19.7605 13.0262 22.0529 14.3207 23.7004 16.2095C25.3479 18.0982 26.2488 20.4647 26.25 22.9069ZM16.1812 8.81036H13.8188L6.31876 3.52414H23.8312L16.1812 8.81036Z" fill="#F39C12"/>
</svg>
