<svg width="36" height="32" viewBox="0 0 36 32" fill="none" xmlns="http://www.w3.org/2000/svg">
<path d="M22.22 20.726C22.1419 20.7153 22.0623 20.7239 21.9883 20.7509C21.9142 20.7779 21.8479 20.8225 21.795 20.881C21.7411 20.9384 21.7017 21.0077 21.6798 21.0833C21.6579 21.1589 21.6542 21.2386 21.669 21.316C21.945 22.766 22.874 24.756 25.726 25.995C26.064 26.141 26.586 26.255 27.248 26.398C29.726 26.934 33.87 27.8319 34.888 31.6299C34.905 31.6934 34.9345 31.753 34.9745 31.8051C35.0146 31.8572 35.0645 31.9009 35.1215 31.9338C35.1785 31.9666 35.2414 31.9879 35.3065 31.9964C35.3717 32.0049 35.438 32.0005 35.5015 31.9834C35.565 31.9664 35.6245 31.937 35.6766 31.8969C35.7287 31.8568 35.7725 31.8069 35.8053 31.7499C35.8381 31.6929 35.8594 31.6301 35.8679 31.5649C35.8764 31.4997 35.872 31.4334 35.855 31.37C34.678 26.983 29.983 25.966 27.46 25.42C26.876 25.293 26.371 25.184 26.124 25.076C24.41 24.332 23.303 23.228 22.823 21.79C27.585 22.144 29.741 20.247 29.836 20.1609C29.8945 20.1079 29.9397 20.0417 29.9678 19.9679C29.9958 19.894 30.006 19.8145 29.9974 19.736C29.9888 19.6574 29.9617 19.5821 29.9184 19.516C29.875 19.4499 29.8166 19.3951 29.748 19.356C27 17.786 27 12.361 27 10.318C27 4.60495 23.152 0.0759531 18.219 0.00495312C18.172 0.00338901 18.125 0.00238894 18.078 0.00195312H18.077C13.072 0.0299531 8.99997 4.56395 8.99997 10.11C8.99997 12.153 8.99997 17.579 6.25197 19.148C6.18113 19.1891 6.12142 19.2469 6.07801 19.3164C6.03461 19.3859 6.00883 19.4649 6.00292 19.5466C5.997 19.6283 6.01113 19.7102 6.04408 19.7852C6.07703 19.8602 6.1278 19.926 6.19197 19.9769C6.32997 20.084 9.37997 22.4179 13.133 21.709C12.631 23.087 11.539 24.147 9.87497 24.87C9.63397 24.975 9.15397 25.09 8.59797 25.222C6.05797 25.826 1.32897 26.951 0.144972 31.3689C0.127966 31.4324 0.123632 31.4987 0.132219 31.5638C0.140805 31.629 0.162144 31.6918 0.195015 31.7488C0.261403 31.8637 0.37074 31.9476 0.498972 31.982C0.627204 32.0163 0.763828 31.9983 0.878788 31.9319C0.993748 31.8655 1.07763 31.7562 1.11197 31.628C2.14097 27.784 6.32897 26.789 8.82997 26.193C9.45697 26.044 9.95197 25.926 10.274 25.787C13.126 24.548 14.054 22.558 14.331 21.108C14.3474 21.023 14.3414 20.9352 14.3135 20.8533C14.2856 20.7714 14.2368 20.6982 14.172 20.641C14.1076 20.5832 14.0293 20.5432 13.9448 20.525C13.8602 20.5067 13.7724 20.5109 13.69 20.537C10.983 21.389 8.48197 20.217 7.38897 19.5669C9.99997 17.381 9.99997 12.35 9.99997 10.11C9.99997 5.11295 13.626 1.02695 18.12 0.999953L18.226 1.00595C22.658 1.06895 26 5.07195 26 10.318C26 12.559 26 17.601 28.622 19.787C27.719 20.303 25.66 21.138 22.22 20.726Z" fill="#F39C12"/>
</svg>
