<svg width="37" height="39" viewBox="0 0 37 39" fill="none" xmlns="http://www.w3.org/2000/svg">
<g clip-path="url(#clip0)">
<path d="M29.2916 5.68005H7.70829C6.86038 5.68005 6.16663 6.41035 6.16663 7.30294V12.1716C6.16663 13.0642 6.86038 13.7945 7.70829 13.7945H29.2916C30.1395 13.7945 30.8333 13.0642 30.8333 12.1716V7.30294C30.8333 6.41035 30.1395 5.68005 29.2916 5.68005Z" fill="#F39C12"/>
<path d="M29.2916 15.4174H7.70829C6.86038 15.4174 6.16663 16.1477 6.16663 17.0402V21.9089C6.16663 22.8015 6.86038 23.5318 7.70829 23.5318H29.2916C30.1395 23.5318 30.8333 22.8015 30.8333 21.9089V17.0402C30.8333 16.1477 30.1395 15.4174 29.2916 15.4174Z" fill="#F39C12"/>
<path d="M29.2916 25.1547H7.70829C6.86038 25.1547 6.16663 25.885 6.16663 26.7776V31.6462C6.16663 32.5388 6.86038 33.2691 7.70829 33.2691H29.2916C30.1395 33.2691 30.8333 32.5388 30.8333 31.6462V26.7776C30.8333 25.885 30.1395 25.1547 29.2916 25.1547Z" fill="#F39C12"/>
<path d="M34.8417 30.916C34.9188 30.5914 34.9188 30.2668 34.9188 30.0234C34.9188 29.78 34.9188 29.3743 34.8417 29.1308L36.6146 27.7514C36.7688 27.5891 36.8459 27.3457 36.7688 27.1834L34.9959 24.0187C34.9188 23.8564 34.6876 23.7753 34.4563 23.8564L32.4521 24.8302C31.9896 24.4245 31.4501 24.0999 30.9105 23.8564L30.6792 21.5033C30.6792 21.2598 30.448 21.0975 30.2938 21.0975H26.8251C26.5938 21.0975 26.4396 21.2598 26.4396 21.5033L26.2084 23.8564C25.6688 24.0999 25.1292 24.4245 24.6667 24.8302L22.6626 23.8564C22.4313 23.7753 22.2001 23.8564 22.123 24.0187L20.3501 27.1834C20.273 27.3457 20.273 27.6702 20.5042 27.7514L22.2771 29.1308C22.2001 29.4554 22.2001 29.78 22.2001 30.0234C22.2001 30.2668 22.2001 30.6726 22.2771 30.916L20.5042 32.2955C20.3501 32.4577 20.273 32.7012 20.3501 32.8635L22.123 36.0281C22.2001 36.1904 22.4313 36.2715 22.6626 36.1904L24.6667 35.2167C25.1292 35.6224 25.6688 35.947 26.2084 36.1904L26.4396 38.5436C26.4396 38.787 26.6709 38.9493 26.8251 38.9493H30.2938C30.5251 38.9493 30.6792 38.787 30.6792 38.5436L30.9105 36.1904C31.4501 35.947 31.9896 35.6224 32.4521 35.2167L34.4563 36.1904C34.6876 36.2715 34.9188 36.1904 34.9959 36.0281L36.7688 32.8635C36.8459 32.7012 36.8459 32.3766 36.6146 32.2955L34.8417 30.916ZM28.5209 34.2429C26.2855 34.2429 24.5126 32.3766 24.5126 30.0234C24.5126 27.6702 26.2855 25.8039 28.5209 25.8039C30.7563 25.8039 32.5292 27.6702 32.5292 30.0234C32.5292 32.3766 30.7563 34.2429 28.5209 34.2429Z" fill="#625F5B"/>
<path d="M28.5209 25.1548C25.9771 25.1548 23.8959 27.3457 23.8959 30.0234C23.8959 32.7012 25.9771 34.8921 28.5209 34.8921C31.0646 34.8921 33.1459 32.7012 33.1459 30.0234C33.1459 27.3457 31.0646 25.1548 28.5209 25.1548ZM28.5209 32.4578C27.2105 32.4578 26.2084 31.4029 26.2084 30.0234C26.2084 28.644 27.2105 27.5891 28.5209 27.5891C29.8313 27.5891 30.8334 28.644 30.8334 30.0234C30.8334 31.4029 29.8313 32.4578 28.5209 32.4578Z" fill="#625F5B"/>
</g>
<defs>
<clipPath id="clip0">
<rect width="37" height="38.9493" fill="white"/>
</clipPath>
</defs>
</svg>
